<?xml version="1.0" encoding="UTF-8"?>
<!DOCTYPE svg PUBLIC "-//W3C//DTD SVG 1.1//EN" "http://www.w3.org/Graphics/SVG/1.1/DTD/svg11.dtd">
<svg xmlns="http://www.w3.org/2000/svg" version="1.1" width="512px" height="512px" style="shape-rendering:geometricPrecision; text-rendering:geometricPrecision; image-rendering:optimizeQuality; fill-rule:evenodd; clip-rule:evenodd" xmlns:xlink="http://www.w3.org/1999/xlink">
<g><path style="opacity:0.998" fill="#a58bbd" d="M 268.5,-0.5 C 269.833,-0.5 271.167,-0.5 272.5,-0.5C 272.243,13.9292 273.243,28.2626 275.5,42.5C 272.088,43.0421 269.088,44.3754 266.5,46.5C 259.075,50.6353 252.242,55.6353 246,61.5C 245.617,60.944 245.117,60.6107 244.5,60.5C 243.313,51.8555 242.313,43.1888 241.5,34.5C 241.171,28.4632 241.504,22.4632 242.5,16.5C 249.169,11.8298 256.169,7.66311 263.5,4C 262.906,3.53566 262.239,3.36899 261.5,3.5C 263.833,2.16667 266.167,0.833333 268.5,-0.5 Z"/></g>
<g><path style="opacity:0.678" fill="#8a66a9" d="M 261.5,3.5 C 262.239,3.36899 262.906,3.53566 263.5,4C 256.169,7.66311 249.169,11.8298 242.5,16.5C 241.504,22.4632 241.171,28.4632 241.5,34.5C 240.51,28.69 240.177,22.69 240.5,16.5C 246.7,10.9859 253.7,6.65253 261.5,3.5 Z"/></g>
<g><path style="opacity:0.995" fill="#45255b" d="M 240.5,16.5 C 240.177,22.69 240.51,28.69 241.5,34.5C 242.313,43.1888 243.313,51.8555 244.5,60.5C 244.5,61.1667 244.5,61.8333 244.5,62.5C 243.164,64.0103 241.997,65.6769 241,67.5C 240.555,73.1716 240.055,78.8383 239.5,84.5C 239.613,86.6413 240.28,88.4747 241.5,90C 240.484,90.5194 239.818,91.3527 239.5,92.5C 240.331,94.4731 240.498,96.4731 240,98.5C 239.111,97.1118 238.611,97.2785 238.5,99C 239.507,100.52 240.173,102.187 240.5,104C 239.061,126.519 237.395,149.019 235.5,171.5C 230.735,183.718 225.568,195.718 220,207.5C 215.057,223.684 209.89,239.684 204.5,255.5C 203.646,247.482 202.646,239.482 201.5,231.5C 200.724,225.179 200.058,218.846 199.5,212.5C 201.708,214.143 203.541,213.81 205,211.5C 209.567,202.35 212.567,192.683 214,182.5C 215.072,179.782 216.238,177.115 217.5,174.5C 220.213,146.21 222.046,117.877 223,89.5C 208.581,107.009 199.581,127.009 196,149.5C 195.5,160.495 195.333,171.495 195.5,182.5C 186.833,182.5 178.167,182.5 169.5,182.5C 167.894,171.392 166.227,160.392 164.5,149.5C 169.039,132.884 174.372,116.551 180.5,100.5C 186.884,86.0216 194.218,72.0216 202.5,58.5C 209.073,50.3549 215.407,42.0216 221.5,33.5C 226.934,26.7274 233.267,21.0607 240.5,16.5 Z"/></g>
<g><path style="opacity:0.991" fill="#856a99" d="M 266.5,46.5 C 267.222,46.9175 267.722,47.5842 268,48.5C 268.667,53.5 268.667,58.5 268,63.5C 267.308,64.0253 266.808,64.6919 266.5,65.5C 267.576,73.032 267.576,80.6987 266.5,88.5C 267.512,90.5522 268.179,92.7188 268.5,95C 268.129,99.8766 267.462,104.71 266.5,109.5C 265.713,110.242 265.047,111.075 264.5,112C 265.17,115.661 265.17,119.161 264.5,122.5C 256.295,103.011 249.628,83.0113 244.5,62.5C 244.5,61.8333 244.5,61.1667 244.5,60.5C 245.117,60.6107 245.617,60.944 246,61.5C 252.242,55.6353 259.075,50.6353 266.5,46.5 Z"/></g>
<g><path style="opacity:0.839" fill="#a289b8" d="M 221.5,33.5 C 215.407,42.0216 209.073,50.3549 202.5,58.5C 202.672,57.5084 202.338,56.8417 201.5,56.5C 206.68,47.6455 213.347,39.9789 221.5,33.5 Z"/></g>
<g><path style="opacity:0.997" fill="#503064" d="M 244.5,62.5 C 249.628,83.0113 256.295,103.011 264.5,122.5C 264.5,122.833 264.5,123.167 264.5,123.5C 264.5,123.833 264.5,124.167 264.5,124.5C 254.598,139.306 247.098,155.306 242,172.5C 231.37,210.982 223.037,249.982 217,289.5C 212.611,283.284 208.444,276.951 204.5,270.5C 205.619,265.653 205.619,260.653 204.5,255.5C 209.89,239.684 215.057,223.684 220,207.5C 225.568,195.718 230.735,183.718 235.5,171.5C 237.395,149.019 239.061,126.519 240.5,104C 240.173,102.187 239.507,100.52 238.5,99C 238.611,97.2785 239.111,97.1118 240,98.5C 240.498,96.4731 240.331,94.4731 239.5,92.5C 239.818,91.3527 240.484,90.5194 241.5,90C 240.28,88.4747 239.613,86.6413 239.5,84.5C 240.055,78.8383 240.555,73.1716 241,67.5C 241.997,65.6769 243.164,64.0103 244.5,62.5 Z"/></g>
<g><path style="opacity:0.986" fill="#8f77a2" d="M 275.5,42.5 C 278.857,63.2861 282.857,83.9527 287.5,104.5C 287.5,105.167 287.167,105.5 286.5,105.5C 286.103,104.475 285.437,104.308 284.5,105C 277.01,110.326 270.343,116.492 264.5,123.5C 264.5,123.167 264.5,122.833 264.5,122.5C 265.17,119.161 265.17,115.661 264.5,112C 265.047,111.075 265.713,110.242 266.5,109.5C 267.462,104.71 268.129,99.8766 268.5,95C 268.179,92.7188 267.512,90.5522 266.5,88.5C 267.576,80.6987 267.576,73.032 266.5,65.5C 266.808,64.6919 267.308,64.0253 268,63.5C 268.667,58.5 268.667,53.5 268,48.5C 267.722,47.5842 267.222,46.9175 266.5,46.5C 269.088,44.3754 272.088,43.0421 275.5,42.5 Z"/></g>
<g><path style="opacity:0.986" fill="#cbc0d5" d="M 201.5,56.5 C 202.338,56.8417 202.672,57.5084 202.5,58.5C 194.218,72.0216 186.884,86.0216 180.5,100.5C 164.251,135.137 153.084,171.47 147,209.5C 145.19,224.32 143.356,238.987 141.5,253.5C 141.5,252.833 141.5,252.167 141.5,251.5C 136.822,220.844 136.489,190.177 140.5,159.5C 154.533,129.762 170.366,101.095 188,73.5C 192.038,67.3995 196.538,61.7329 201.5,56.5 Z"/></g>
<g><path style="opacity:0.996" fill="#3e1855" d="M 199.5,212.5 C 198.766,211.292 198.433,209.959 198.5,208.5C 197.499,199.816 196.499,191.15 195.5,182.5C 195.333,171.495 195.5,160.495 196,149.5C 199.581,127.009 208.581,107.009 223,89.5C 222.046,117.877 220.213,146.21 217.5,174.5C 216.238,177.115 215.072,179.782 214,182.5C 212.567,192.683 209.567,202.35 205,211.5C 203.541,213.81 201.708,214.143 199.5,212.5 Z"/></g>
<g><path style="opacity:0.984" fill="#8f78a2" d="M 286.5,105.5 C 282.233,116.968 278.566,128.635 275.5,140.5C 275.167,140.5 274.833,140.5 274.5,140.5C 272.403,136.628 270.069,132.961 267.5,129.5C 267.5,129.167 267.5,128.833 267.5,128.5C 272.701,119.959 279.034,112.293 286.5,105.5 Z"/></g>
<g><path style="opacity:0.988" fill="#725587" d="M 286.5,105.5 C 279.034,112.293 272.701,119.959 267.5,128.5C 266.488,127.128 265.488,125.795 264.5,124.5C 264.5,124.167 264.5,123.833 264.5,123.5C 270.343,116.492 277.01,110.326 284.5,105C 285.437,104.308 286.103,104.475 286.5,105.5 Z"/></g>
<g><path style="opacity:0.992" fill="#4a2b60" d="M 274.5,140.5 C 274.833,140.5 275.167,140.5 275.5,140.5C 285.085,153.09 295.419,165.09 306.5,176.5C 302.748,178.011 299.081,177.677 295.5,175.5C 294.304,175.846 294.304,176.346 295.5,177C 292.667,177.167 289.833,177.333 287,177.5C 279.345,175.964 271.512,175.297 263.5,175.5C 266.562,163.646 270.229,151.979 274.5,140.5 Z"/></g>
<g><path style="opacity:0.964" fill="#9d82b4" d="M 287.5,104.5 C 291.461,115.433 296.295,126.099 302,136.5C 311.356,150.009 320.856,163.342 330.5,176.5C 329.509,183.313 329.175,190.313 329.5,197.5C 321.534,190.869 313.867,183.869 306.5,176.5C 295.419,165.09 285.085,153.09 275.5,140.5C 278.566,128.635 282.233,116.968 286.5,105.5C 287.167,105.5 287.5,105.167 287.5,104.5 Z"/></g>
<g><path style="opacity:0.961" fill="#a28ab8" d="M 180.5,100.5 C 174.372,116.551 169.039,132.884 164.5,149.5C 155.35,180.917 149.017,212.917 145.5,245.5C 144.199,249.943 143.532,254.609 143.5,259.5C 142.542,257.698 141.875,255.698 141.5,253.5C 143.356,238.987 145.19,224.32 147,209.5C 153.084,171.47 164.251,135.137 180.5,100.5 Z"/></g>
<g><path style="opacity:0.988" fill="#563a6a" d="M 267.5,129.5 C 270.069,132.961 272.403,136.628 274.5,140.5C 270.229,151.979 266.562,163.646 263.5,175.5C 271.512,175.297 279.345,175.964 287,177.5C 289.833,177.333 292.667,177.167 295.5,177C 294.304,176.346 294.304,175.846 295.5,175.5C 299.081,177.677 302.748,178.011 306.5,176.5C 313.867,183.869 321.534,190.869 329.5,197.5C 329.5,197.833 329.5,198.167 329.5,198.5C 329.5,204.5 329.5,210.5 329.5,216.5C 328.596,217.209 328.263,218.209 328.5,219.5C 326.833,219.5 325.167,219.5 323.5,219.5C 323.48,216.302 323.147,213.469 322.5,211C 317.161,210.473 312.494,208.473 308.5,205C 305.833,204.333 303.167,204.333 300.5,205C 301.5,205.333 302.5,205.667 303.5,206C 298.889,207.007 294.555,206.34 290.5,204C 282.543,203.907 274.71,203.073 267,201.5C 265.5,201.667 264,201.833 262.5,202C 262.833,202.333 263.167,202.667 263.5,203C 261.209,204.877 259.209,204.71 257.5,202.5C 257.124,208.1 257.124,213.766 257.5,219.5C 254.5,219.5 251.5,219.5 248.5,219.5C 250.21,213.557 251.376,207.557 252,201.5C 248.385,206.868 245.885,212.368 244.5,218C 242.064,221.654 239.73,225.154 237.5,228.5C 240.231,207.674 244.064,187.008 249,166.5C 253.066,153.035 259.233,140.701 267.5,129.5 Z"/></g>
<g><path style="opacity:0.988" fill="#4f3365" d="M 169.5,182.5 C 178.167,182.5 186.833,182.5 195.5,182.5C 196.499,191.15 197.499,199.816 198.5,208.5C 190.858,206.895 183.191,206.561 175.5,207.5C 172.5,199.522 170.5,191.188 169.5,182.5 Z"/></g>
<g><path style="opacity:0.996" fill="#3c1556" d="M 164.5,149.5 C 166.227,160.392 167.894,171.392 169.5,182.5C 170.5,191.188 172.5,199.522 175.5,207.5C 177.302,214.237 179.302,220.904 181.5,227.5C 177.684,232.44 173.851,237.44 170,242.5C 165.346,243.812 161.846,246.645 159.5,251C 157.312,250.773 154.979,251.106 152.5,252C 151.245,254.705 149.245,256.538 146.5,257.5C 145.833,257.167 145.167,256.833 144.5,256.5C 146.115,253.55 148.115,250.884 150.5,248.5C 150.333,248.167 150.167,247.833 150,247.5C 148.89,249.037 147.39,249.703 145.5,249.5C 145.5,248.167 145.5,246.833 145.5,245.5C 149.017,212.917 155.35,180.917 164.5,149.5 Z"/></g>
<g><path style="opacity:0.988" fill="#604573" d="M 329.5,216.5 C 329.236,223.89 329.57,231.223 330.5,238.5C 330.5,238.833 330.5,239.167 330.5,239.5C 330.762,240.978 330.429,242.311 329.5,243.5C 327.591,242.652 325.591,242.318 323.5,242.5C 323.037,239.518 322.704,236.518 322.5,233.5C 315.368,231.869 308.035,231.035 300.5,231C 299.672,230.085 298.672,229.419 297.5,229C 292.167,228.667 286.833,228.333 281.5,228C 277.858,225.592 273.858,224.925 269.5,226C 270.167,226.333 270.833,226.667 271.5,227C 270.333,227.167 269.167,227.333 268,227.5C 265.239,226.582 262.406,225.916 259.5,225.5C 260.292,231.13 260.625,236.797 260.5,242.5C 253.5,242.5 246.5,242.5 239.5,242.5C 237.837,247.161 236.171,251.827 234.5,256.5C 231.453,264.644 228.786,272.978 226.5,281.5C 224.078,286.165 222.411,291.165 221.5,296.5C 221.167,296.5 220.833,296.5 220.5,296.5C 225.957,273.742 231.623,251.075 237.5,228.5C 239.73,225.154 242.064,221.654 244.5,218C 245.885,212.368 248.385,206.868 252,201.5C 251.376,207.557 250.21,213.557 248.5,219.5C 251.5,219.5 254.5,219.5 257.5,219.5C 257.124,213.766 257.124,208.1 257.5,202.5C 259.209,204.71 261.209,204.877 263.5,203C 263.167,202.667 262.833,202.333 262.5,202C 264,201.833 265.5,201.667 267,201.5C 274.71,203.073 282.543,203.907 290.5,204C 294.555,206.34 298.889,207.007 303.5,206C 302.5,205.667 301.5,205.333 300.5,205C 303.167,204.333 305.833,204.333 308.5,205C 312.494,208.473 317.161,210.473 322.5,211C 323.147,213.469 323.48,216.302 323.5,219.5C 325.167,219.5 326.833,219.5 328.5,219.5C 328.263,218.209 328.596,217.209 329.5,216.5 Z"/></g>
<g><path style="opacity:0.988" fill="#5a3f6e" d="M 198.5,208.5 C 198.433,209.959 198.766,211.292 199.5,212.5C 200.058,218.846 200.724,225.179 201.5,231.5C 196.917,230.97 192.417,229.97 188,228.5C 186.238,228.944 186.405,229.444 188.5,230C 186.563,230.122 185.23,230.955 184.5,232.5C 183.687,230.739 182.687,229.072 181.5,227.5C 179.302,220.904 177.302,214.237 175.5,207.5C 183.191,206.561 190.858,206.895 198.5,208.5 Z"/></g>
<g><path style="opacity:0.754" fill="#e5e4e7" d="M 330.5,176.5 C 356.251,205.25 378.918,236.25 398.5,269.5C 379.596,246.593 358.929,225.26 336.5,205.5C 334.5,202.833 332.167,200.5 329.5,198.5C 329.5,198.167 329.5,197.833 329.5,197.5C 329.175,190.313 329.509,183.313 330.5,176.5 Z"/></g>
<g><path style="opacity:0.985" fill="#674e7a" d="M 330.5,239.5 C 331.488,244.64 331.821,249.974 331.5,255.5C 329.307,256.797 326.973,256.797 324.5,255.5C 323.873,252.298 323.206,249.131 322.5,246C 313.498,246.237 304.831,244.904 296.5,242C 289.253,241.188 282.086,241.354 275,242.5C 270.881,239.939 266.548,237.939 262,236.5C 262.098,243.301 262.264,249.968 262.5,256.5C 253.167,256.5 243.833,256.5 234.5,256.5C 236.171,251.827 237.837,247.161 239.5,242.5C 246.5,242.5 253.5,242.5 260.5,242.5C 260.625,236.797 260.292,231.13 259.5,225.5C 262.406,225.916 265.239,226.582 268,227.5C 269.167,227.333 270.333,227.167 271.5,227C 270.833,226.667 270.167,226.333 269.5,226C 273.858,224.925 277.858,225.592 281.5,228C 286.833,228.333 292.167,228.667 297.5,229C 298.672,229.419 299.672,230.085 300.5,231C 308.035,231.035 315.368,231.869 322.5,233.5C 322.704,236.518 323.037,239.518 323.5,242.5C 325.591,242.318 327.591,242.652 329.5,243.5C 330.429,242.311 330.762,240.978 330.5,239.5 Z"/></g>
<g><path style="opacity:0.935" fill="#654878" d="M 336.5,205.5 C 358.929,225.26 379.596,246.593 398.5,269.5C 400.488,272.128 402.488,274.795 404.5,277.5C 403.957,277.56 403.624,277.893 403.5,278.5C 406.891,284.114 409.891,289.947 412.5,296C 412.355,296.772 412.022,297.439 411.5,298C 406.167,300 400.833,302 395.5,304C 398.5,304.333 401.5,304.667 404.5,305C 401.167,306.333 397.833,307.667 394.5,309C 397.5,309.333 400.5,309.667 403.5,310C 398.5,310.333 393.5,310.667 388.5,311C 391.5,311.333 394.5,311.667 397.5,312C 393.167,313.667 388.833,315.333 384.5,317C 386.167,317.333 387.833,317.667 389.5,318C 384.749,318.189 380.083,318.855 375.5,320C 377.5,320.333 379.5,320.667 381.5,321C 377.91,322.53 374.243,323.864 370.5,325C 371.833,325.333 373.167,325.667 374.5,326C 368.167,328.333 361.833,330.667 355.5,333C 358.833,333.333 362.167,333.667 365.5,334C 361.167,335.667 356.833,337.333 352.5,339C 354.5,339.333 356.5,339.667 358.5,340C 354.5,340.667 354.5,341.333 358.5,342C 355.247,343.036 351.914,343.703 348.5,344C 350.167,344.333 351.833,344.667 353.5,345C 351.238,345.642 349.071,346.475 347,347.5C 346.667,347.167 346.333,346.833 346,346.5C 344.955,339.875 344.289,333.208 344,326.5C 343.95,324.256 343.117,322.589 341.5,321.5C 342.167,320.833 342.833,320.167 343.5,319.5C 353.099,314.402 360.599,307.069 366,297.5C 367.44,293.959 368.274,290.292 368.5,286.5C 369.491,269.153 365.158,253.153 355.5,238.5C 349.646,227.802 343.146,217.469 336,207.5C 335.308,206.563 335.475,205.897 336.5,205.5 Z"/></g>
<g><path style="opacity:0.914" fill="#6d587a" d="M 329.5,198.5 C 332.167,200.5 334.5,202.833 336.5,205.5C 335.475,205.897 335.308,206.563 336,207.5C 343.146,217.469 349.646,227.802 355.5,238.5C 347.167,238.5 338.833,238.5 330.5,238.5C 329.57,231.223 329.236,223.89 329.5,216.5C 329.5,210.5 329.5,204.5 329.5,198.5 Z"/></g>
<g><path style="opacity:0.978" fill="#9275a4" d="M 140.5,159.5 C 136.489,190.177 136.822,220.844 141.5,251.5C 139.992,248.75 137.659,247.916 134.5,249C 121.826,253.894 110.16,258.394 99.5,262.5C 109.851,226.766 123.518,192.433 140.5,159.5 Z"/></g>
<g><path style="opacity:0.984" fill="#654b78" d="M 201.5,231.5 C 202.646,239.482 203.646,247.482 204.5,255.5C 205.619,260.653 205.619,265.653 204.5,270.5C 203.737,268.632 202.737,266.965 201.5,265.5C 195.055,254.943 189.388,243.943 184.5,232.5C 185.23,230.955 186.563,230.122 188.5,230C 186.405,229.444 186.238,228.944 188,228.5C 192.417,229.97 196.917,230.97 201.5,231.5 Z"/></g>
<g><path style="opacity:0.984" fill="#705882" d="M 331.5,255.5 C 332.991,262.042 334.324,268.708 335.5,275.5C 335.963,278.482 336.296,281.482 336.5,284.5C 333.713,285.477 330.713,285.81 327.5,285.5C 327.148,282.572 326.482,279.738 325.5,277C 319.09,274.308 312.423,272.641 305.5,272C 301.789,268.662 297.622,267.829 293,269.5C 288.413,269.177 284.246,267.677 280.5,265C 275.115,264.786 269.781,264.286 264.5,263.5C 263.549,270.143 262.883,276.81 262.5,283.5C 260.143,283.337 257.81,283.503 255.5,284C 257.935,285.003 257.602,285.503 254.5,285.5C 245.163,284.128 235.83,282.795 226.5,281.5C 228.786,272.978 231.453,264.644 234.5,256.5C 243.833,256.5 253.167,256.5 262.5,256.5C 262.264,249.968 262.098,243.301 262,236.5C 266.548,237.939 270.881,239.939 275,242.5C 282.086,241.354 289.253,241.188 296.5,242C 304.831,244.904 313.498,246.237 322.5,246C 323.206,249.131 323.873,252.298 324.5,255.5C 326.973,256.797 329.307,256.797 331.5,255.5 Z"/></g>
<g><path style="opacity:0.996" fill="#43215a" d="M 181.5,227.5 C 182.687,229.072 183.687,230.739 184.5,232.5C 189.388,243.943 195.055,254.943 201.5,265.5C 198.511,268.989 194.844,271.489 190.5,273C 189.743,274.512 188.743,275.846 187.5,277C 183.249,277.726 179.249,279.059 175.5,281C 169.539,287.114 164.205,293.614 159.5,300.5C 152.482,287.803 147.148,274.47 143.5,260.5C 143.5,260.167 143.5,259.833 143.5,259.5C 143.532,254.609 144.199,249.943 145.5,245.5C 145.5,246.833 145.5,248.167 145.5,249.5C 147.39,249.703 148.89,249.037 150,247.5C 150.167,247.833 150.333,248.167 150.5,248.5C 148.115,250.884 146.115,253.55 144.5,256.5C 145.167,256.833 145.833,257.167 146.5,257.5C 149.245,256.538 151.245,254.705 152.5,252C 154.979,251.106 157.312,250.773 159.5,251C 161.846,246.645 165.346,243.812 170,242.5C 173.851,237.44 177.684,232.44 181.5,227.5 Z"/></g>
<g><path style="opacity:0.888" fill="#7d6b88" d="M 330.5,239.5 C 330.5,239.167 330.5,238.833 330.5,238.5C 338.833,238.5 347.167,238.5 355.5,238.5C 365.158,253.153 369.491,269.153 368.5,286.5C 368.5,283.167 368.5,279.833 368.5,276.5C 357.513,275.834 346.513,275.501 335.5,275.5C 334.324,268.708 332.991,262.042 331.5,255.5C 331.821,249.974 331.488,244.64 330.5,239.5 Z"/></g>
<g><path style="opacity:0.996" fill="#49295e" d="M 264.5,124.5 C 265.488,125.795 266.488,127.128 267.5,128.5C 267.5,128.833 267.5,129.167 267.5,129.5C 259.233,140.701 253.066,153.035 249,166.5C 244.064,187.008 240.231,207.674 237.5,228.5C 231.623,251.075 225.957,273.742 220.5,296.5C 217.255,305.735 214.088,315.068 211,324.5C 210.777,317.706 209.777,311.039 208,304.5C 204.168,309.074 199.501,311.407 194,311.5C 190.656,315.842 186.99,319.842 183,323.5C 182.383,324.449 182.549,325.282 183.5,326C 187.736,327.945 191.403,330.612 194.5,334C 192.759,335.62 190.925,337.12 189,338.5C 188.4,340.91 187.234,342.91 185.5,344.5C 175.673,330.637 167.007,315.971 159.5,300.5C 164.205,293.614 169.539,287.114 175.5,281C 179.249,279.059 183.249,277.726 187.5,277C 188.743,275.846 189.743,274.512 190.5,273C 194.844,271.489 198.511,268.989 201.5,265.5C 202.737,266.965 203.737,268.632 204.5,270.5C 208.444,276.951 212.611,283.284 217,289.5C 223.037,249.982 231.37,210.982 242,172.5C 247.098,155.306 254.598,139.306 264.5,124.5 Z"/></g>
<g><path style="opacity:0.98" fill="#876a9b" d="M 141.5,251.5 C 141.5,252.167 141.5,252.833 141.5,253.5C 141.875,255.698 142.542,257.698 143.5,259.5C 143.5,259.833 143.5,260.167 143.5,260.5C 141.849,274.013 140.516,287.68 139.5,301.5C 136.849,300.51 134.183,299.51 131.5,298.5C 126.612,300.622 121.612,302.455 116.5,304C 118.717,305.275 121.051,306.275 123.5,307C 119.872,310.311 116.205,310.311 112.5,307C 111.167,306.333 109.833,306.333 108.5,307C 110.5,308.333 112.5,309.667 114.5,311C 113.5,311.5 112.5,312 111.5,312.5C 108.712,311.022 105.878,309.689 103,308.5C 101.745,309.211 100.579,310.044 99.5,311C 101.717,312.275 104.051,313.275 106.5,314C 102.722,314.539 99.2217,313.705 96,311.5C 95.1268,311.735 94.2935,312.069 93.5,312.5C 92.5016,322.144 92.1682,331.81 92.5,341.5C 92.1667,341.5 91.8333,341.5 91.5,341.5C 90.2052,314.74 92.8718,288.407 99.5,262.5C 110.16,258.394 121.826,253.894 134.5,249C 137.659,247.916 139.992,248.75 141.5,251.5 Z"/></g>
<g><path style="opacity:0.98" fill="#7a648b" d="M 336.5,284.5 C 339.587,296.027 341.921,307.693 343.5,319.5C 342.833,320.167 342.167,320.833 341.5,321.5C 338.622,323.105 335.622,324.439 332.5,325.5C 331.254,317.868 330.254,310.201 329.5,302.5C 322.287,301.054 314.954,300.221 307.5,300C 304.377,296.98 300.71,295.98 296.5,297C 297.833,297.667 299.167,298.333 300.5,299C 297.983,299.257 295.65,298.59 293.5,297C 286.875,295.955 280.208,295.289 273.5,295C 270.274,292.425 266.607,290.925 262.5,290.5C 261.273,295.466 260.106,300.466 259,305.5C 256.536,310.401 254.369,315.401 252.5,320.5C 249.925,323.319 247.592,326.319 245.5,329.5C 245.167,329.5 244.833,329.5 244.5,329.5C 240.398,323.615 236.064,317.948 231.5,312.5C 228.167,307.167 224.833,301.833 221.5,296.5C 222.411,291.165 224.078,286.165 226.5,281.5C 235.83,282.795 245.163,284.128 254.5,285.5C 257.602,285.503 257.935,285.003 255.5,284C 257.81,283.503 260.143,283.337 262.5,283.5C 262.883,276.81 263.549,270.143 264.5,263.5C 269.781,264.286 275.115,264.786 280.5,265C 284.246,267.677 288.413,269.177 293,269.5C 297.622,267.829 301.789,268.662 305.5,272C 312.423,272.641 319.09,274.308 325.5,277C 326.482,279.738 327.148,282.572 327.5,285.5C 330.713,285.81 333.713,285.477 336.5,284.5 Z"/></g>
<g><path style="opacity:0.86" fill="#8c7d95" d="M 335.5,275.5 C 346.513,275.501 357.513,275.834 368.5,276.5C 368.5,279.833 368.5,283.167 368.5,286.5C 368.274,290.292 367.44,293.959 366,297.5C 360.599,307.069 353.099,314.402 343.5,319.5C 341.921,307.693 339.587,296.027 336.5,284.5C 336.296,281.482 335.963,278.482 335.5,275.5 Z"/></g>
<g><path style="opacity:0.912" fill="#604274" d="M 404.5,277.5 C 417.851,295.047 424.518,314.88 424.5,337C 424.348,341.521 424.014,346.021 423.5,350.5C 421.373,354.071 419.206,357.738 417,361.5C 404.594,374.085 390.428,384.085 374.5,391.5C 363.956,395.57 353.289,399.237 342.5,402.5C 339.539,403.323 336.539,403.99 333.5,404.5C 332.903,404.265 332.57,403.765 332.5,403C 335.793,392.243 337.126,381.243 336.5,370C 336.454,355.37 335.12,340.87 332.5,326.5C 332.5,326.167 332.5,325.833 332.5,325.5C 335.622,324.439 338.622,323.105 341.5,321.5C 343.117,322.589 343.95,324.256 344,326.5C 344.289,333.208 344.955,339.875 346,346.5C 346.333,346.833 346.667,347.167 347,347.5C 349.071,346.475 351.238,345.642 353.5,345C 351.833,344.667 350.167,344.333 348.5,344C 351.914,343.703 355.247,343.036 358.5,342C 354.5,341.333 354.5,340.667 358.5,340C 356.5,339.667 354.5,339.333 352.5,339C 356.833,337.333 361.167,335.667 365.5,334C 362.167,333.667 358.833,333.333 355.5,333C 361.833,330.667 368.167,328.333 374.5,326C 373.167,325.667 371.833,325.333 370.5,325C 374.243,323.864 377.91,322.53 381.5,321C 379.5,320.667 377.5,320.333 375.5,320C 380.083,318.855 384.749,318.189 389.5,318C 387.833,317.667 386.167,317.333 384.5,317C 388.833,315.333 393.167,313.667 397.5,312C 394.5,311.667 391.5,311.333 388.5,311C 393.5,310.667 398.5,310.333 403.5,310C 400.5,309.667 397.5,309.333 394.5,309C 397.833,307.667 401.167,306.333 404.5,305C 401.5,304.667 398.5,304.333 395.5,304C 400.833,302 406.167,300 411.5,298C 412.022,297.439 412.355,296.772 412.5,296C 409.891,289.947 406.891,284.114 403.5,278.5C 403.624,277.893 403.957,277.56 404.5,277.5 Z"/></g>
<g><path style="opacity:0.98" fill="#877195" d="M 332.5,325.5 C 332.5,325.833 332.5,326.167 332.5,326.5C 329.167,327.833 325.833,329.167 322.5,330.5C 319.527,328.675 316.361,328.342 313,329.5C 303.692,328.706 294.192,327.872 284.5,327C 283.167,326 281.833,325 280.5,324C 275.833,323.667 271.167,323.333 266.5,323C 264.983,321.492 263.149,320.658 261,320.5C 258.313,321.025 255.48,321.025 252.5,320.5C 254.369,315.401 256.536,310.401 259,305.5C 260.106,300.466 261.273,295.466 262.5,290.5C 266.607,290.925 270.274,292.425 273.5,295C 280.208,295.289 286.875,295.955 293.5,297C 295.65,298.59 297.983,299.257 300.5,299C 299.167,298.333 297.833,297.667 296.5,297C 300.71,295.98 304.377,296.98 307.5,300C 314.954,300.221 322.287,301.054 329.5,302.5C 330.254,310.201 331.254,317.868 332.5,325.5 Z"/></g>
<g><path style="opacity:0.992" fill="#6d4f80" d="M 143.5,260.5 C 147.148,274.47 152.482,287.803 159.5,300.5C 167.007,315.971 175.673,330.637 185.5,344.5C 185.5,344.833 185.5,345.167 185.5,345.5C 181.39,347.601 177.056,349.434 172.5,351C 175.638,352.244 178.972,352.911 182.5,353C 181.328,353.419 180.328,354.085 179.5,355C 183.167,355.333 186.833,355.667 190.5,356C 178.244,360.863 165.911,365.53 153.5,370C 157.5,370.333 161.5,370.667 165.5,371C 159.5,373.333 153.5,375.667 147.5,378C 150.119,378.151 152.453,378.985 154.5,380.5C 151.113,382.629 147.447,383.962 143.5,384.5C 143.5,386.167 143.5,387.833 143.5,389.5C 140.456,368.091 139.123,346.424 139.5,324.5C 139.5,316.833 139.5,309.167 139.5,301.5C 140.516,287.68 141.849,274.013 143.5,260.5 Z"/></g>
<g><path style="opacity:0.984" fill="#7f6194" d="M 139.5,301.5 C 139.5,309.167 139.5,316.833 139.5,324.5C 138.733,325.172 138.066,326.005 137.5,327C 125.866,331.444 114.199,336.111 102.5,341C 103.328,341.915 104.328,342.581 105.5,343C 102.813,343.537 100.313,343.037 98,341.5C 94.2265,343.225 92.7265,346.225 93.5,350.5C 92.5233,347.713 92.19,344.713 92.5,341.5C 92.1682,331.81 92.5016,322.144 93.5,312.5C 94.2935,312.069 95.1268,311.735 96,311.5C 99.2217,313.705 102.722,314.539 106.5,314C 104.051,313.275 101.717,312.275 99.5,311C 100.579,310.044 101.745,309.211 103,308.5C 105.878,309.689 108.712,311.022 111.5,312.5C 112.5,312 113.5,311.5 114.5,311C 112.5,309.667 110.5,308.333 108.5,307C 109.833,306.333 111.167,306.333 112.5,307C 116.205,310.311 119.872,310.311 123.5,307C 121.051,306.275 118.717,305.275 116.5,304C 121.612,302.455 126.612,300.622 131.5,298.5C 134.183,299.51 136.849,300.51 139.5,301.5 Z"/></g>
<g><path style="opacity:0.992" fill="#563c67" d="M 231.5,312.5 C 236.064,317.948 240.398,323.615 244.5,329.5C 241.985,335.021 238.651,340.021 234.5,344.5C 227.655,342.957 220.655,341.457 213.5,340C 209.056,338.942 205.056,337.109 201.5,334.5C 204.929,332.119 208.596,330.285 212.5,329C 214.174,324.989 217.174,322.989 221.5,323C 224.705,318.644 228.038,315.144 231.5,312.5 Z"/></g>
<g><path style="opacity:0.98" fill="#8e7a9c" d="M 252.5,320.5 C 255.48,321.025 258.313,321.025 261,320.5C 263.149,320.658 264.983,321.492 266.5,323C 271.167,323.333 275.833,323.667 280.5,324C 281.833,325 283.167,326 284.5,327C 294.192,327.872 303.692,328.706 313,329.5C 316.361,328.342 319.527,328.675 322.5,330.5C 301.446,339.378 279.446,344.045 256.5,344.5C 252.422,339.762 248.756,334.762 245.5,329.5C 247.592,326.319 249.925,323.319 252.5,320.5 Z"/></g>
<g><path style="opacity:0.996" fill="#4d3060" d="M 220.5,296.5 C 220.833,296.5 221.167,296.5 221.5,296.5C 224.833,301.833 228.167,307.167 231.5,312.5C 228.038,315.144 224.705,318.644 221.5,323C 217.174,322.989 214.174,324.989 212.5,329C 208.596,330.285 204.929,332.119 201.5,334.5C 205.056,337.109 209.056,338.942 213.5,340C 220.655,341.457 227.655,342.957 234.5,344.5C 226.255,355.323 218.255,366.323 210.5,377.5C 209.504,377.586 208.671,377.252 208,376.5C 200.25,366.265 192.75,355.931 185.5,345.5C 185.5,345.167 185.5,344.833 185.5,344.5C 187.234,342.91 188.4,340.91 189,338.5C 190.925,337.12 192.759,335.62 194.5,334C 191.403,330.612 187.736,327.945 183.5,326C 182.549,325.282 182.383,324.449 183,323.5C 186.99,319.842 190.656,315.842 194,311.5C 199.501,311.407 204.168,309.074 208,304.5C 209.777,311.039 210.777,317.706 211,324.5C 214.088,315.068 217.255,305.735 220.5,296.5 Z"/></g>
<g><path style="opacity:0.992" fill="#715484" d="M 332.5,326.5 C 335.12,340.87 336.454,355.37 336.5,370C 337.126,381.243 335.793,392.243 332.5,403C 332.57,403.765 332.903,404.265 333.5,404.5C 329.308,405.608 324.975,406.608 320.5,407.5C 297.228,388.562 275.895,367.562 256.5,344.5C 279.446,344.045 301.446,339.378 322.5,330.5C 325.833,329.167 329.167,327.833 332.5,326.5 Z"/></g>
<g><path style="opacity:0.996" fill="#675076" d="M 244.5,329.5 C 244.833,329.5 245.167,329.5 245.5,329.5C 248.756,334.762 252.422,339.762 256.5,344.5C 275.895,367.562 297.228,388.562 320.5,407.5C 293.691,411.907 266.691,413.574 239.5,412.5C 238.833,412.167 238.167,411.833 237.5,411.5C 228.122,400.791 219.122,389.791 210.5,378.5C 210.5,378.167 210.5,377.833 210.5,377.5C 218.255,366.323 226.255,355.323 234.5,344.5C 238.651,340.021 241.985,335.021 244.5,329.5 Z"/></g>
<g><path style="opacity:0.992" fill="#67497b" d="M 185.5,345.5 C 192.75,355.931 200.25,366.265 208,376.5C 208.671,377.252 209.504,377.586 210.5,377.5C 210.5,377.833 210.5,378.167 210.5,378.5C 204.022,386.769 198.522,395.769 194,405.5C 193.329,406.252 192.496,406.586 191.5,406.5C 175.566,403.98 159.899,400.313 144.5,395.5C 144.5,394.833 144.167,394.5 143.5,394.5C 143.5,392.833 143.5,391.167 143.5,389.5C 143.5,387.833 143.5,386.167 143.5,384.5C 147.447,383.962 151.113,382.629 154.5,380.5C 152.453,378.985 150.119,378.151 147.5,378C 153.5,375.667 159.5,373.333 165.5,371C 161.5,370.667 157.5,370.333 153.5,370C 165.911,365.53 178.244,360.863 190.5,356C 186.833,355.667 183.167,355.333 179.5,355C 180.328,354.085 181.328,353.419 182.5,353C 178.972,352.911 175.638,352.244 172.5,351C 177.056,349.434 181.39,347.601 185.5,345.5 Z"/></g>
<g><path style="opacity:0.987" fill="#a18eb1" d="M 91.5,341.5 C 91.8333,341.5 92.1667,341.5 92.5,341.5C 92.19,344.713 92.5233,347.713 93.5,350.5C 96.3202,359.621 101.32,367.454 108.5,374C 119.035,382.688 130.702,389.521 143.5,394.5C 144.167,394.5 144.5,394.833 144.5,395.5C 150.053,431.821 167.053,461.321 195.5,484C 199.394,486.446 203.394,488.612 207.5,490.5C 211.888,493.361 216.554,495.694 221.5,497.5C 228.049,500.727 235.049,502.894 242.5,504C 237.845,504.499 233.179,504.666 228.5,504.5C 200.109,500.765 175.109,489.598 153.5,471C 146.27,463.938 139.27,456.771 132.5,449.5C 106.666,418.358 92.9991,382.358 91.5,341.5 Z"/></g>
<g><path style="opacity:0.988" fill="#75568b" d="M 139.5,324.5 C 139.123,346.424 140.456,368.091 143.5,389.5C 143.5,391.167 143.5,392.833 143.5,394.5C 130.702,389.521 119.035,382.688 108.5,374C 101.32,367.454 96.3202,359.621 93.5,350.5C 92.7265,346.225 94.2265,343.225 98,341.5C 100.313,343.037 102.813,343.537 105.5,343C 104.328,342.581 103.328,341.915 102.5,341C 114.199,336.111 125.866,331.444 137.5,327C 138.066,326.005 138.733,325.172 139.5,324.5 Z"/></g>
<g><path style="opacity:0.75" fill="#b1a9b5" d="M 423.5,350.5 C 423.066,355.668 422.4,360.668 421.5,365.5C 419.903,374.131 417.903,382.798 415.5,391.5C 401.844,392.362 388.177,392.362 374.5,391.5C 390.428,384.085 404.594,374.085 417,361.5C 419.206,357.738 421.373,354.071 423.5,350.5 Z"/></g>
<g><path style="opacity:0.992" fill="#7c628d" d="M 210.5,378.5 C 219.122,389.791 228.122,400.791 237.5,411.5C 222.422,411.008 207.422,409.675 192.5,407.5C 191.833,407.5 191.5,407.167 191.5,406.5C 192.496,406.586 193.329,406.252 194,405.5C 198.522,395.769 204.022,386.769 210.5,378.5 Z"/></g>
<g><path style="opacity:0.988" fill="#9c8ca8" d="M 144.5,395.5 C 159.899,400.313 175.566,403.98 191.5,406.5C 191.5,407.167 191.833,407.5 192.5,407.5C 190.116,413.655 188.116,419.989 186.5,426.5C 182.102,446.369 186.102,464.369 198.5,480.5C 201.051,484.293 204.051,487.626 207.5,490.5C 203.394,488.612 199.394,486.446 195.5,484C 167.053,461.321 150.053,431.821 144.5,395.5 Z"/></g>
<g><path style="opacity:0.991" fill="#887a92" d="M 342.5,402.5 C 341.885,408.243 340.885,413.909 339.5,419.5C 339.167,419.5 338.833,419.5 338.5,419.5C 335.821,417.399 332.988,415.399 330,413.5C 322.747,431.879 313.247,448.879 301.5,464.5C 277.54,451.216 256.873,433.883 239.5,412.5C 266.691,413.574 293.691,411.907 320.5,407.5C 324.975,406.608 329.308,405.608 333.5,404.5C 336.539,403.99 339.539,403.323 342.5,402.5 Z"/></g>
<g><path style="opacity:0.703" fill="#beb8c1" d="M 421.5,365.5 C 418.963,392.451 410.296,417.118 395.5,439.5C 394.833,439.5 394.167,439.5 393.5,439.5C 395.156,436.861 396.822,434.195 398.5,431.5C 398.167,431.167 397.833,430.833 397.5,430.5C 383.183,435.064 369.183,434.23 355.5,428C 349.947,425.392 344.613,422.559 339.5,419.5C 340.885,413.909 341.885,408.243 342.5,402.5C 353.289,399.237 363.956,395.57 374.5,391.5C 388.177,392.362 401.844,392.362 415.5,391.5C 417.903,382.798 419.903,374.131 421.5,365.5 Z"/></g>
<g><path style="opacity:0.988" fill="#aa9cb4" d="M 192.5,407.5 C 207.422,409.675 222.422,411.008 237.5,411.5C 238.167,411.833 238.833,412.167 239.5,412.5C 256.873,433.883 277.54,451.216 301.5,464.5C 305.069,466.119 308.736,467.452 312.5,468.5C 312.5,468.833 312.5,469.167 312.5,469.5C 302.581,479.253 291.915,488.087 280.5,496C 270.855,500.717 260.855,503.884 250.5,505.5C 242.981,505.825 235.648,505.492 228.5,504.5C 233.179,504.666 237.845,504.499 242.5,504C 235.049,502.894 228.049,500.727 221.5,497.5C 229.524,500.038 237.524,500.038 245.5,497.5C 267.378,493.063 285.378,482.229 299.5,465C 297.833,464 296.167,463 294.5,462C 290.416,461.769 286.416,461.102 282.5,460C 276.5,456.333 270.5,452.667 264.5,449C 267.833,448.667 271.167,448.333 274.5,448C 266.995,446.564 259.661,444.731 252.5,442.5C 248.782,442.678 248.782,443.511 252.5,445C 249.983,445.257 247.65,444.59 245.5,443C 241.167,442.667 236.833,442.333 232.5,442C 227.91,440.25 223.244,438.75 218.5,437.5C 217.833,437.833 217.167,438.167 216.5,438.5C 212.032,435.863 207.698,433.03 203.5,430C 199.5,429.667 195.5,429.333 191.5,429C 189.922,427.906 188.255,427.072 186.5,426.5C 188.116,419.989 190.116,413.655 192.5,407.5 Z"/></g>
<g><path style="opacity:0.985" fill="#7b6c85" d="M 338.5,419.5 C 334.265,438.309 325.598,454.643 312.5,468.5C 308.736,467.452 305.069,466.119 301.5,464.5C 313.247,448.879 322.747,431.879 330,413.5C 332.988,415.399 335.821,417.399 338.5,419.5 Z"/></g>
<g><path style="opacity:0.99" fill="#b2a6bb" d="M 186.5,426.5 C 188.255,427.072 189.922,427.906 191.5,429C 195.5,429.333 199.5,429.667 203.5,430C 207.698,433.03 212.032,435.863 216.5,438.5C 217.167,438.167 217.833,437.833 218.5,437.5C 223.244,438.75 227.91,440.25 232.5,442C 236.833,442.333 241.167,442.667 245.5,443C 247.65,444.59 249.983,445.257 252.5,445C 248.782,443.511 248.782,442.678 252.5,442.5C 259.661,444.731 266.995,446.564 274.5,448C 271.167,448.333 267.833,448.667 264.5,449C 270.5,452.667 276.5,456.333 282.5,460C 286.416,461.102 290.416,461.769 294.5,462C 296.167,463 297.833,464 299.5,465C 285.378,482.229 267.378,493.063 245.5,497.5C 248.465,494.18 248.132,491.347 244.5,489C 229.333,484.056 214,481.223 198.5,480.5C 186.102,464.369 182.102,446.369 186.5,426.5 Z"/></g>
<g><path style="opacity:0.764" fill="#918a93" d="M 338.5,419.5 C 338.833,419.5 339.167,419.5 339.5,419.5C 344.613,422.559 349.947,425.392 355.5,428C 369.183,434.23 383.183,435.064 397.5,430.5C 397.833,430.833 398.167,431.167 398.5,431.5C 396.822,434.195 395.156,436.861 393.5,439.5C 385.662,453.504 374.662,464.337 360.5,472C 350.077,475.939 339.41,476.606 328.5,474C 323.062,472.797 317.729,471.297 312.5,469.5C 312.5,469.167 312.5,468.833 312.5,468.5C 325.598,454.643 334.265,438.309 338.5,419.5 Z"/></g>
<g><path style="opacity:0.335" fill="#fcfbfc" d="M 132.5,449.5 C 139.27,456.771 146.27,463.938 153.5,471C 175.109,489.598 200.109,500.765 228.5,504.5C 235.648,505.492 242.981,505.825 250.5,505.5C 296.15,508.263 336.817,495.597 372.5,467.5C 361.121,479.041 347.788,487.874 332.5,494C 312.887,502.815 292.554,508.649 271.5,511.5C 259.833,511.5 248.167,511.5 236.5,511.5C 193.485,504.666 158.818,483.999 132.5,449.5 Z"/></g>
<g><path style="opacity:1" fill="#fcfcfd" d="M 245.5,497.5 C 237.524,500.038 229.524,500.038 221.5,497.5C 216.554,495.694 211.888,493.361 207.5,490.5C 204.051,487.626 201.051,484.293 198.5,480.5C 214,481.223 229.333,484.056 244.5,489C 248.132,491.347 248.465,494.18 245.5,497.5 Z"/></g>
<g><path style="opacity:0.564" fill="#d8d6d7" d="M 393.5,439.5 C 394.167,439.5 394.833,439.5 395.5,439.5C 389.713,450.424 382.047,459.758 372.5,467.5C 336.817,495.597 296.15,508.263 250.5,505.5C 260.855,503.884 270.855,500.717 280.5,496C 291.915,488.087 302.581,479.253 312.5,469.5C 317.729,471.297 323.062,472.797 328.5,474C 339.41,476.606 350.077,475.939 360.5,472C 374.662,464.337 385.662,453.504 393.5,439.5 Z"/></g>
</svg>
