<?xml version="1.0" encoding="UTF-8"?>
<!DOCTYPE svg PUBLIC "-//W3C//DTD SVG 1.1//EN" "http://www.w3.org/Graphics/SVG/1.1/DTD/svg11.dtd">
<svg xmlns="http://www.w3.org/2000/svg" version="1.1" width="1605px" height="733px" style="shape-rendering:geometricPrecision; text-rendering:geometricPrecision; image-rendering:optimizeQuality; fill-rule:evenodd; clip-rule:evenodd" xmlns:xlink="http://www.w3.org/1999/xlink">
<g><path style="opacity:0.984" fill="#7f211d" d="M 75.5,-0.5 C 79.5,-0.5 83.5,-0.5 87.5,-0.5C 95.748,1.91348 101.248,7.24681 104,15.5C 105.377,28.4539 105.877,41.4539 105.5,54.5C 118.907,54.0556 132.24,54.5556 145.5,56C 154.804,60.3186 159.804,67.652 160.5,78C 159.816,88.6882 154.482,96.0215 144.5,100C 131.552,101.401 118.552,101.901 105.5,101.5C 105.877,114.546 105.377,127.546 104,140.5C 95.6896,156.381 83.5229,160.214 67.5,152C 63.8957,149.292 61.3957,145.792 60,141.5C 58.5556,128.24 58.0556,114.907 58.5,101.5C 47.1618,101.667 35.8284,101.5 24.5,101C 8.41509,97.6787 1.58175,87.8453 4,71.5C 6.35126,64.4808 10.8513,59.3141 17.5,56C 31.1069,54.5734 44.7736,54.0734 58.5,54.5C 58.3334,41.8289 58.5001,29.1623 59,16.5C 62.0191,8.31563 67.5191,2.64896 75.5,-0.5 Z"/></g>
<g><path style="opacity:0.99" fill="#80221e" d="M 430.5,3.5 C 444.634,1.64223 454.134,7.3089 459,20.5C 459.5,33.1623 459.667,45.8289 459.5,58.5C 471.838,58.3335 484.171,58.5001 496.5,59C 508.001,62.3066 514.334,69.9732 515.5,82C 514.786,92.7109 509.453,100.044 499.5,104C 486.218,105.403 472.885,105.903 459.5,105.5C 459.946,119.24 459.446,132.907 458,146.5C 450.478,159.453 439.645,163.286 425.5,158C 420.95,155.117 417.45,151.284 415,146.5C 413.554,132.907 413.054,119.24 413.5,105.5C 400.115,105.903 386.782,105.403 373.5,104C 363.382,99.9387 358.048,92.4387 357.5,81.5C 358.968,69.8667 365.302,62.3667 376.5,59C 388.829,58.5001 401.162,58.3335 413.5,58.5C 413.333,45.8289 413.5,33.1623 414,20.5C 416.684,11.984 422.184,6.3173 430.5,3.5 Z"/></g>
<g><path style="opacity:0.994" fill="#00213c" d="M 629.5,152.5 C 676.5,152.5 723.5,152.5 770.5,152.5C 771.397,203.852 772.897,255.186 775,306.5C 785.306,291.192 798.473,279.025 814.5,270C 866.429,240.012 921.763,231.012 980.5,243C 1049.4,262.9 1098.9,305.4 1129,370.5C 1167.29,466.104 1153.62,553.438 1088,632.5C 1047.42,677.543 996.918,703.709 936.5,711C 869.979,716.299 814.812,694.132 771,644.5C 770.5,664.164 770.333,683.831 770.5,703.5C 724.5,703.5 678.5,703.5 632.5,703.5C 631.984,519.828 630.984,336.162 629.5,152.5 Z M 874.5,361.5 C 912.737,357.307 946.404,367.474 975.5,392C 1003.9,420.018 1014.73,453.851 1008,493.5C 1000.27,529.895 979.77,556.395 946.5,573C 904.568,589.887 863.568,587.887 823.5,567C 782.773,538.688 766.273,499.855 774,450.5C 784.207,407.622 810.374,379.456 852.5,366C 859.931,364.281 867.265,362.781 874.5,361.5 Z"/></g>
<g><path style="opacity:0.998" fill="#fe8b63" d="M 1604.5,494.5 C 1604.5,509.5 1604.5,524.5 1604.5,539.5C 1597.83,632.351 1549.83,692.184 1460.5,719C 1408.56,731.941 1357.23,729.941 1306.5,713C 1228.74,681.874 1187.24,624.374 1182,540.5C 1181.83,523.833 1181.67,507.167 1181.5,490.5C 1181.32,393.843 1181.65,297.177 1182.5,200.5C 1223.5,200.5 1264.5,200.5 1305.5,200.5C 1306.43,232.154 1306.76,263.82 1306.5,295.5C 1364.83,295.5 1423.17,295.5 1481.5,295.5C 1481.5,331.5 1481.5,367.5 1481.5,403.5C 1423.17,403.5 1364.83,403.5 1306.5,403.5C 1306.07,444.558 1305.73,485.558 1305.5,526.5C 1305.62,541.911 1308.12,556.911 1313,571.5C 1324.85,595.675 1344.02,610.509 1370.5,616C 1392.4,619.539 1413.73,617.539 1434.5,610C 1459.09,598.017 1473.92,578.517 1479,551.5C 1479.5,532.503 1479.67,513.503 1479.5,494.5C 1521.17,494.5 1562.83,494.5 1604.5,494.5 Z"/></g>
<g><path style="opacity:0.996" fill="#7f211d" d="M 292.5,732.5 C 276.833,732.5 261.167,732.5 245.5,732.5C 193.348,728.839 145.681,712.339 102.5,683C 51.7832,644.209 19.6166,593.375 6,530.5C 2.83561,513.812 0.668946,497.145 -0.5,480.5C -0.5,459.167 -0.5,437.833 -0.5,416.5C 51.8143,415.522 104.148,415.189 156.5,415.5C 157.257,438.152 157.757,460.819 158,483.5C 162.002,525.039 182.502,555.205 219.5,574C 247.4,583.799 275.734,585.133 304.5,578C 341.954,565.966 365.454,540.799 375,502.5C 376.323,496.893 377.323,491.226 378,485.5C 378.5,393.167 378.667,300.834 378.5,208.5C 431.167,208.5 483.833,208.5 536.5,208.5C 536.667,302.501 536.5,396.501 536,490.5C 530.725,560.873 502.558,620.039 451.5,668C 405.42,706.202 352.42,727.702 292.5,732.5 Z"/></g>
</svg>
