<?xml version="1.0" encoding="UTF-8"?>
<!DOCTYPE svg PUBLIC "-//W3C//DTD SVG 1.1//EN" "http://www.w3.org/Graphics/SVG/1.1/DTD/svg11.dtd">
<svg xmlns="http://www.w3.org/2000/svg" version="1.1" width="180px" height="180px" style="shape-rendering:geometricPrecision; text-rendering:geometricPrecision; image-rendering:optimizeQuality; fill-rule:evenodd; clip-rule:evenodd" xmlns:xlink="http://www.w3.org/1999/xlink">
<g><path style="opacity:0.933" fill="#9090db" d="M 70.5,-0.5 C 72.1667,-0.5 73.8333,-0.5 75.5,-0.5C 75.5,0.166667 75.8333,0.5 76.5,0.5C 80.0636,14.1884 84.3969,27.5218 89.5,40.5C 88.4051,45.7848 86.7384,50.7848 84.5,55.5C 81.4015,44.2045 77.7348,33.2045 73.5,22.5C 73.5224,14.66 72.5224,6.99329 70.5,-0.5 Z"/></g>
<g><path style="opacity:0.928" fill="#8da0e2" d="M 76.5,0.5 C 82.9982,2.5765 88.6649,5.90984 93.5,10.5C 99.7778,34.036 106.778,57.7026 114.5,81.5C 112.953,87.808 110.62,93.808 107.5,99.5C 106.883,99.3893 106.383,99.056 106,98.5C 103.764,89.5231 100.93,80.8564 97.5,72.5C 100.987,56.0666 98.8206,40.3999 91,25.5C 90.5892,30.5195 90.0892,35.5195 89.5,40.5C 84.3969,27.5218 80.0636,14.1884 76.5,0.5 Z"/></g>
<g><path style="opacity:0.959" fill="#8babe6" d="M 93.5,10.5 C 95.7488,11.0798 97.4154,12.4131 98.5,14.5C 104.101,34.3022 110.101,53.9688 116.5,73.5C 116.435,76.4282 115.768,79.0948 114.5,81.5C 106.778,57.7026 99.7778,34.036 93.5,10.5 Z"/></g>
<g><path style="opacity:0.931" fill="#8ab3ea" d="M 98.5,14.5 C 115.801,30.7353 121.801,50.402 116.5,73.5C 110.101,53.9688 104.101,34.3022 98.5,14.5 Z"/></g>
<g><path style="opacity:0.925" fill="#9281d4" d="M 73.5,22.5 C 77.7348,33.2045 81.4015,44.2045 84.5,55.5C 83.5402,60.0864 81.5402,64.0864 78.5,67.5C 76.4563,58.0353 73.4563,49.0353 69.5,40.5C 71.4652,34.6395 72.7985,28.6395 73.5,22.5 Z"/></g>
<g><path style="opacity:0.934" fill="#9475ce" d="M 69.5,40.5 C 73.4563,49.0353 76.4563,58.0353 78.5,67.5C 77.3307,70.5113 75.664,73.178 73.5,75.5C 70.4631,67.3856 67.7964,59.0523 65.5,50.5C 66.6389,47.082 67.9723,43.7487 69.5,40.5 Z"/></g>
<g><path style="opacity:0.919" fill="#9669c9" d="M 65.5,50.5 C 67.7964,59.0523 70.4631,67.3856 73.5,75.5C 71.6465,79.2208 69.3131,82.5541 66.5,85.5C 64.0111,77.2111 61.6778,68.8778 59.5,60.5C 61.1373,56.8822 63.1373,53.5488 65.5,50.5 Z"/></g>
<g><path style="opacity:0.877" fill="#84d1f7" d="M 152.5,133.5 C 149.364,124.091 146.03,114.757 142.5,105.5C 142.02,91.2873 140.02,77.2873 136.5,63.5C 136.833,62.8333 137.167,62.1667 137.5,61.5C 142.567,66.6154 146.4,72.6154 149,79.5C 156.011,97.2936 157.178,115.294 152.5,133.5 Z"/></g>
<g><path style="opacity:0.932" fill="#985cc4" d="M 59.5,60.5 C 61.6778,68.8778 64.0111,77.2111 66.5,85.5C 65.5667,88.3702 63.9,90.7036 61.5,92.5C 58.3865,85.077 55.7199,77.4103 53.5,69.5C 55.2549,66.3197 57.2549,63.3197 59.5,60.5 Z"/></g>
<g><path style="opacity:0.91" fill="#9b4ebd" d="M 53.5,69.5 C 55.7199,77.4103 58.3865,85.077 61.5,92.5C 58.5547,98.1043 55.2214,103.438 51.5,108.5C 49.4341,99.5485 46.7674,90.8819 43.5,82.5C 46.0745,77.591 49.4078,73.2577 53.5,69.5 Z"/></g>
<g><path style="opacity:0.948" fill="#908eda" d="M 97.5,72.5 C 100.93,80.8564 103.764,89.5231 106,98.5C 106.383,99.056 106.883,99.3893 107.5,99.5C 107.068,100.71 106.401,101.71 105.5,102.5C 101.316,101.834 96.9822,101.167 92.5,100.5C 91.6493,97.4223 90.6493,94.4223 89.5,91.5C 92.5494,85.3586 95.2161,79.0253 97.5,72.5 Z"/></g>
<g><path style="opacity:0.915" fill="#9e3db6" d="M 43.5,82.5 C 46.7674,90.8819 49.4341,99.5485 51.5,108.5C 49.8139,111.872 48.1473,115.205 46.5,118.5C 43.944,109.243 40.944,100.243 37.5,91.5C 38.7693,87.9464 40.7693,84.9464 43.5,82.5 Z"/></g>
<g><path style="opacity:0.846" fill="#9074cc" d="M 89.5,91.5 C 90.6493,94.4223 91.6493,97.4223 92.5,100.5C 96.9822,101.167 101.316,101.834 105.5,102.5C 101.833,102.5 98.1667,102.5 94.5,102.5C 90.467,103.025 86.8004,104.358 83.5,106.5C 80.883,107.786 78.5496,109.453 76.5,111.5C 75.609,112.11 74.609,112.443 73.5,112.5C 78.8645,105.476 84.1978,98.4761 89.5,91.5 Z"/></g>
<g><path style="opacity:0.832" fill="#a02eaf" d="M 37.5,91.5 C 40.944,100.243 43.944,109.243 46.5,118.5C 44.3471,128.644 45.1804,138.644 49,148.5C 50.7131,152.873 53.2131,156.707 56.5,160C 51.7816,158.36 47.615,155.527 44,151.5C 28.6031,132.891 26.4364,112.891 37.5,91.5 Z"/></g>
<g><path style="opacity:0.945" fill="#371c68" d="M 94.5,102.5 C 94.0825,103.222 93.4158,103.722 92.5,104C 93.2942,109.759 93.2942,115.593 92.5,121.5C 89.2977,127.441 87.2977,133.774 86.5,140.5C 86.4494,145.015 87.7828,149.015 90.5,152.5C 88.627,160.921 87.627,169.587 87.5,178.5C 84.5152,177.674 81.8485,176.341 79.5,174.5C 81.3794,152.826 83.3794,131.16 85.5,109.5C 85.3601,107.97 84.6935,106.97 83.5,106.5C 86.8004,104.358 90.467,103.025 94.5,102.5 Z"/></g>
<g><path style="opacity:0.86" fill="#42176c" d="M 94.5,102.5 C 98.1667,102.5 101.833,102.5 105.5,102.5C 101.905,109.362 97.5718,115.696 92.5,121.5C 93.2942,115.593 93.2942,109.759 92.5,104C 93.4158,103.722 94.0825,103.222 94.5,102.5 Z"/></g>
<g><path style="opacity:0.97" fill="#22245f" d="M 76.5,111.5 C 77.0967,111.735 77.4301,112.235 77.5,113C 75.3231,131.446 73.6564,149.946 72.5,168.5C 70.4776,166.469 68.8109,164.135 67.5,161.5C 69.5503,146.612 70.8837,131.612 71.5,116.5C 71.7329,114.938 72.3995,113.605 73.5,112.5C 74.609,112.443 75.609,112.11 76.5,111.5 Z"/></g>
<g><path style="opacity:0.012" fill="#000000" d="M 23.5,115.5 C 25.337,115.639 25.6704,116.306 24.5,117.5C 23.7025,117.043 23.3691,116.376 23.5,115.5 Z"/></g>
<g><path style="opacity:0.883" fill="#87c0f0" d="M 142.5,105.5 C 146.03,114.757 149.364,124.091 152.5,133.5C 151.63,138.223 149.964,142.556 147.5,146.5C 145.164,139.15 142.83,131.817 140.5,124.5C 141.101,118.158 141.768,111.824 142.5,105.5 Z"/></g>
<g><path style="opacity:1" fill="#2c2063" d="M 83.5,106.5 C 84.6935,106.97 85.3601,107.97 85.5,109.5C 83.3794,131.16 81.3794,152.826 79.5,174.5C 76.5526,173.219 74.2193,171.219 72.5,168.5C 73.6564,149.946 75.3231,131.446 77.5,113C 77.4301,112.235 77.0967,111.735 76.5,111.5C 78.5496,109.453 80.883,107.786 83.5,106.5 Z"/></g>
<g><path style="opacity:0.794" fill="#1c285d" d="M 71.5,116.5 C 70.8837,131.612 69.5503,146.612 67.5,161.5C 58.4926,145.582 59.8259,130.582 71.5,116.5 Z"/></g>
<g><path style="opacity:0.883" fill="#89b6eb" d="M 140.5,124.5 C 142.83,131.817 145.164,139.15 147.5,146.5C 146,150.173 144,153.506 141.5,156.5C 139.701,150.437 137.701,144.437 135.5,138.5C 137.193,133.748 138.86,129.081 140.5,124.5 Z"/></g>
<g><path style="opacity:0.906" fill="#8ca5e4" d="M 135.5,138.5 C 137.701,144.437 139.701,150.437 141.5,156.5C 138.877,160.791 135.544,164.457 131.5,167.5C 130.296,161.681 128.629,156.015 126.5,150.5C 129.531,146.476 132.531,142.476 135.5,138.5 Z"/></g>
<g><path style="opacity:0.917" fill="#8e94dc" d="M 126.5,150.5 C 128.629,156.015 130.296,161.681 131.5,167.5C 128.35,170.579 124.683,172.913 120.5,174.5C 123.172,169.129 124.005,163.462 123,157.5C 122.623,156.058 121.79,155.058 120.5,154.5C 122.223,152.782 124.223,151.449 126.5,150.5 Z"/></g>
<g><path style="opacity:0.922" fill="#43176c" d="M 90.5,152.5 C 92.695,154.424 95.0283,156.091 97.5,157.5C 96.5337,164.796 95.867,172.13 95.5,179.5C 93.1667,179.5 90.8333,179.5 88.5,179.5C 88.5,178.833 88.1667,178.5 87.5,178.5C 87.627,169.587 88.627,160.921 90.5,152.5 Z"/></g>
<g><path style="opacity:0.901" fill="#6a0c7e" d="M 120.5,154.5 C 121.79,155.058 122.623,156.058 123,157.5C 124.005,163.462 123.172,169.129 120.5,174.5C 117.912,176.592 114.912,177.925 111.5,178.5C 112.287,171.515 112.953,164.515 113.5,157.5C 115.649,156.264 117.982,155.264 120.5,154.5 Z"/></g>
<g><path style="opacity:0.955" fill="#570f74" d="M 97.5,157.5 C 102.833,158.833 108.167,158.833 113.5,157.5C 112.953,164.515 112.287,171.515 111.5,178.5C 110.833,178.5 110.5,178.833 110.5,179.5C 105.5,179.5 100.5,179.5 95.5,179.5C 95.867,172.13 96.5337,164.796 97.5,157.5 Z"/></g>
</svg>
