<?xml version="1.0" encoding="UTF-8"?>
<!DOCTYPE svg PUBLIC "-//W3C//DTD SVG 1.1//EN" "http://www.w3.org/Graphics/SVG/1.1/DTD/svg11.dtd">
<svg xmlns="http://www.w3.org/2000/svg" version="1.1" width="200px" height="200px" style="shape-rendering:geometricPrecision; text-rendering:geometricPrecision; image-rendering:optimizeQuality; fill-rule:evenodd; clip-rule:evenodd" xmlns:xlink="http://www.w3.org/1999/xlink">
<g><path style="opacity:1" fill="#e75704" d="M -0.5,-0.5 C 66.1667,-0.5 132.833,-0.5 199.5,-0.5C 199.5,66.1667 199.5,132.833 199.5,199.5C 132.833,199.5 66.1667,199.5 -0.5,199.5C -0.5,132.833 -0.5,66.1667 -0.5,-0.5 Z"/></g>
<g><path style="opacity:1" fill="#fdfcf9" d="M 92.5,38.5 C 104.585,37.6256 114.751,41.6256 123,50.5C 141.81,72.9903 148.476,98.657 143,127.5C 132.561,153.477 113.394,163.977 85.5,159C 66.9484,151.443 56.4484,137.61 54,117.5C 52.1727,89.4143 61.006,65.4143 80.5,45.5C 84.2674,42.6215 88.2674,40.2882 92.5,38.5 Z"/></g>
<g><path style="opacity:1" fill="#e45e15" d="M 107.5,131.5 C 106.167,131.5 104.833,131.5 103.5,131.5C 103.5,129.167 103.5,126.833 103.5,124.5C 101.167,124.5 98.8333,124.5 96.5,124.5C 96.5,126.833 96.5,129.167 96.5,131.5C 95.1667,131.5 93.8333,131.5 92.5,131.5C 92.5,128.833 92.5,126.167 92.5,123.5C 88.1667,123.5 83.8333,123.5 79.5,123.5C 79.5,122.5 79.5,121.5 79.5,120.5C 80.4446,117.013 82.7779,115.68 86.5,116.5C 86.5,106.833 86.5,97.1667 86.5,87.5C 84.5,87.5 82.5,87.5 80.5,87.5C 80.1667,84.8333 79.8333,82.1667 79.5,79.5C 83.5,79.5 87.5,79.5 91.5,79.5C 91.5,77.5 91.5,75.5 91.5,73.5C 93.1667,73.5 94.8333,73.5 96.5,73.5C 96.5,75.8333 96.5,78.1667 96.5,80.5C 98.5,80.5 100.5,80.5 102.5,80.5C 102.5,78.1667 102.5,75.8333 102.5,73.5C 104.167,73.5 105.833,73.5 107.5,73.5C 106.427,78.7015 108.427,81.5348 113.5,82C 118.752,88.0616 118.752,94.2282 113.5,100.5C 115.791,102.288 117.957,104.288 120,106.5C 121.851,116.493 117.685,122.16 107.5,123.5C 107.5,126.167 107.5,128.833 107.5,131.5 Z"/></g>
<g><path style="opacity:1" fill="#fbf8f2" d="M 97.5,97.5 C 97.5,94.1667 97.5,90.8333 97.5,87.5C 100.518,87.3354 103.518,87.502 106.5,88C 109.47,91.4442 109.137,94.4442 105.5,97C 102.854,97.4974 100.187,97.6641 97.5,97.5 Z"/></g>
<g><path style="opacity:1" fill="#e95605" d="M 97.5,97.5 C 97.5,98.5 97.5,99.5 97.5,100.5C 101.182,100.335 104.848,100.501 108.5,101C 104.831,102.093 101.164,102.926 97.5,103.5C 96.5206,106.625 96.1872,109.958 96.5,113.5C 94.5295,114.162 92.5295,114.828 90.5,115.5C 89.7492,114.624 89.2492,113.624 89,112.5C 88.6667,112.833 88.3333,113.167 88,113.5C 87.3333,107.167 87.3333,100.833 88,94.5C 89.6297,92.8495 89.4631,91.1828 87.5,89.5C 89.8493,87.7962 90.8493,85.4629 90.5,82.5C 92.3904,82.7035 93.8904,82.0368 95,80.5C 96.4007,82.1922 98.2341,82.8588 100.5,82.5C 100.5,83.5 100.5,84.5 100.5,85.5C 97.8599,83.9922 95.5266,84.3256 93.5,86.5C 94.325,87.3857 95.325,87.719 96.5,87.5C 96.1872,91.0419 96.5206,94.3752 97.5,97.5 Z"/></g>
<g><path style="opacity:1" fill="#fbfaf5" d="M 97.5,103.5 C 100.518,103.335 103.518,103.502 106.5,104C 110.213,105.691 111.379,108.525 110,112.5C 109.578,114.426 108.411,115.426 106.5,115.5C 103.5,115.5 100.5,115.5 97.5,115.5C 97.5,111.5 97.5,107.5 97.5,103.5 Z"/></g>
<g><path style="opacity:1" fill="#ffc9ab" d="M 97.5,103.5 C 97.5,107.5 97.5,111.5 97.5,115.5C 100.5,115.5 103.5,115.5 106.5,115.5C 103.375,116.479 100.042,116.813 96.5,116.5C 96.5,115.5 96.5,114.5 96.5,113.5C 96.1872,109.958 96.5206,106.625 97.5,103.5 Z"/></g>
<g><path style="opacity:1" fill="#e59a72" d="M 79.5,120.5 C 79.5,121.5 79.5,122.5 79.5,123.5C 83.8333,123.5 88.1667,123.5 92.5,123.5C 92.5,126.167 92.5,128.833 92.5,131.5C 91.5318,129.393 91.1984,127.059 91.5,124.5C 86.7863,124.827 82.1196,124.493 77.5,123.5C 77.9424,122.261 78.6091,121.261 79.5,120.5 Z"/></g>
<g><path style="opacity:1" fill="#fbd2b4" d="M 107.5,131.5 C 102.164,133.504 100.164,131.504 101.5,125.5C 100.178,125.33 99.0113,125.663 98,126.5C 97.8019,128.382 97.3019,130.048 96.5,131.5C 96.5,129.167 96.5,126.833 96.5,124.5C 98.8333,124.5 101.167,124.5 103.5,124.5C 103.5,126.833 103.5,129.167 103.5,131.5C 104.833,131.5 106.167,131.5 107.5,131.5 Z"/></g>
</svg>
