<?xml version="1.0" encoding="UTF-8"?>
<!DOCTYPE svg PUBLIC "-//W3C//DTD SVG 1.1//EN" "http://www.w3.org/Graphics/SVG/1.1/DTD/svg11.dtd">
<svg xmlns="http://www.w3.org/2000/svg" version="1.1" width="196px" height="80px" style="shape-rendering:geometricPrecision; text-rendering:geometricPrecision; image-rendering:optimizeQuality; fill-rule:evenodd; clip-rule:evenodd" xmlns:xlink="http://www.w3.org/1999/xlink">
<g><path style="opacity:1" fill="#f6eb31" d="M 23.5,-0.5 C 38.5,-0.5 53.5,-0.5 68.5,-0.5C 66.668,3.83616 64.3346,7.83616 61.5,11.5C 50.3258,9.91765 38.9924,8.25098 27.5,6.5C 25.412,4.66439 24.0787,2.33105 23.5,-0.5 Z"/></g>
<g><path style="opacity:1" fill="#f5e927" d="M 27.5,6.5 C 38.9924,8.25098 50.3258,9.91765 61.5,11.5C 60.1667,14.5 58.8333,17.5 57.5,20.5C 49.8333,20.5 42.1667,20.5 34.5,20.5C 32.1667,15.8333 29.8333,11.1667 27.5,6.5 Z"/></g>
<g><path style="opacity:0.952" fill="#8eb956" d="M 68.5,-0.5 C 68.8333,-0.5 69.1667,-0.5 69.5,-0.5C 73.6866,5.87268 77.3533,12.5393 80.5,19.5C 75.2789,22.3621 70.1123,25.3621 65,28.5C 64.4712,26.4153 64.9712,24.582 66.5,23C 66.1667,22.5 65.8333,22 65.5,21.5C 63.6736,23.1475 62.3403,25.1475 61.5,27.5C 59.9172,25.3374 58.5839,23.0041 57.5,20.5C 58.8333,17.5 60.1667,14.5 61.5,11.5C 64.3346,7.83616 66.668,3.83616 68.5,-0.5 Z"/></g>
<g><path style="opacity:0.846" fill="#fefffe" d="M 112.5,17.5 C 114.5,17.5 116.5,17.5 118.5,17.5C 118.173,22.544 118.506,27.544 119.5,32.5C 124.89,28.4645 130.057,28.7978 135,33.5C 136.414,42.4178 136.914,51.4178 136.5,60.5C 134.533,60.7394 132.699,60.4061 131,59.5C 130.667,52.5 130.333,45.5 130,38.5C 126.283,34.5515 122.617,34.8849 119,39.5C 118.667,46.1667 118.333,52.8333 118,59.5C 116.333,60.8333 114.667,60.8333 113,59.5C 112.5,45.504 112.333,31.504 112.5,17.5 Z"/></g>
<g><path style="opacity:1" fill="#edb338" d="M 21.5,-0.5 C 22.1667,-0.5 22.8333,-0.5 23.5,-0.5C 24.0787,2.33105 25.412,4.66439 27.5,6.5C 29.8333,11.1667 32.1667,15.8333 34.5,20.5C 30.5808,26.6697 26.9141,33.0031 23.5,39.5C 15.5,39.5 7.5,39.5 -0.5,39.5C -0.5,38.8333 -0.5,38.1667 -0.5,37.5C 7.19709,25.1141 14.5304,12.4475 21.5,-0.5 Z"/></g>
<g><path style="opacity:0.949" fill="#87b450" d="M 80.5,19.5 C 84.9885,25.7994 88.9885,32.4661 92.5,39.5C 84.1667,39.5 75.8333,39.5 67.5,39.5C 65.5,35.5 63.5,31.5 61.5,27.5C 62.3403,25.1475 63.6736,23.1475 65.5,21.5C 65.8333,22 66.1667,22.5 66.5,23C 64.9712,24.582 64.4712,26.4153 65,28.5C 70.1123,25.3621 75.2789,22.3621 80.5,19.5 Z"/></g>
<g><path style="opacity:0.852" fill="#fefffe" d="M 154.5,29.5 C 165.499,29.7947 170.166,35.4613 168.5,46.5C 162.167,46.5 155.833,46.5 149.5,46.5C 148.846,50.6826 150.512,53.516 154.5,55C 158.956,55.5778 163.289,55.0778 167.5,53.5C 168.07,57.4214 166.403,59.588 162.5,60C 146.262,61.7423 140.096,54.5756 144,38.5C 145.859,33.467 149.359,30.467 154.5,29.5 Z M 154.5,34.5 C 159.878,34.5448 162.545,37.2114 162.5,42.5C 158.167,42.5 153.833,42.5 149.5,42.5C 149.667,38.8206 151.334,36.154 154.5,34.5 Z"/></g>
<g><path style="opacity:0.824" fill="#fefffe" d="M 195.5,30.5 C 195.5,31.5 195.5,32.5 195.5,33.5C 192.696,37.1541 190.03,40.9875 187.5,45C 190.312,48.8124 192.979,52.6457 195.5,56.5C 195.5,57.8333 195.5,59.1667 195.5,60.5C 193.801,60.6602 192.134,60.4935 190.5,60C 188.045,56.9223 185.711,53.7556 183.5,50.5C 181.301,53.7175 178.967,56.8842 176.5,60C 174.866,60.4935 173.199,60.6602 171.5,60.5C 172.948,54.7718 175.615,49.6051 179.5,45C 176.409,40.3104 173.742,35.477 171.5,30.5C 173.924,30.1924 176.257,30.5258 178.5,31.5C 180.333,34.5 182.167,37.5 184,40.5C 185.833,37.3333 187.667,34.1667 189.5,31C 191.473,30.5045 193.473,30.3379 195.5,30.5 Z"/></g>
<g><path style="opacity:0.962" fill="#a82b3b" d="M -0.5,39.5 C 7.5,39.5 15.5,39.5 23.5,39.5C 24.1098,40.391 24.4431,41.391 24.5,42.5C 20.7495,49.6707 16.7495,56.6707 12.5,63.5C 8.15187,56.1311 3.81853,48.7978 -0.5,41.5C -0.5,40.8333 -0.5,40.1667 -0.5,39.5 Z"/></g>
<g><path style="opacity:0.964" fill="#628bc8" d="M 67.5,39.5 C 75.8333,39.5 84.1667,39.5 92.5,39.5C 84.8333,52.8333 77.1667,66.1667 69.5,79.5C 69.1667,79.5 68.8333,79.5 68.5,79.5C 64.8627,72.549 60.8627,65.8823 56.5,59.5C 60.1949,52.8163 63.8616,46.1497 67.5,39.5 Z"/></g>
<g><path style="opacity:0.949" fill="#aa2c40" d="M 24.5,42.5 C 28.5863,47.6649 31.9196,53.3315 34.5,59.5C 30.0115,65.7994 26.0115,72.4661 22.5,79.5C 22.1667,79.5 21.8333,79.5 21.5,79.5C 18.5,74.1667 15.5,68.8333 12.5,63.5C 16.7495,56.6707 20.7495,49.6707 24.5,42.5 Z"/></g>
<g><path style="opacity:1" fill="#785198" d="M 34.5,59.5 C 37.1667,59.5 39.8333,59.5 42.5,59.5C 38.8616,66.1497 35.1949,72.8163 31.5,79.5C 28.5,79.5 25.5,79.5 22.5,79.5C 26.0115,72.4661 30.0115,65.7994 34.5,59.5 Z"/></g>
<g><path style="opacity:1" fill="#6a458f" d="M 42.5,59.5 C 47.1667,59.5 51.8333,59.5 56.5,59.5C 60.8627,65.8823 64.8627,72.549 68.5,79.5C 56.1667,79.5 43.8333,79.5 31.5,79.5C 35.1949,72.8163 38.8616,66.1497 42.5,59.5 Z"/></g>
</svg>
