<svg width="100" height="100" viewBox="0 0 100 100" fill="none" xmlns="http://www.w3.org/2000/svg">
<path d="M50 100C77.6142 100 100 77.6142 100 50C100 22.3858 77.6142 0 50 0C22.3858 0 0 22.3858 0 50C0 77.6142 22.3858 100 50 100Z" fill="#D0F0FF"/>
<path d="M34.4955 24.122C51.4098 19.4849 65.3109 25.2316 72.2334 38.0994C73.8253 41.0542 74.8192 44.2938 75.1584 47.6329C75.4975 50.9721 75.1752 54.3453 74.2099 57.5598C73.2446 60.7744 71.6552 63.7671 69.5326 66.367C67.41 68.9669 64.7958 71.123 61.8394 72.712C56.0822 75.807 49.3315 76.4887 43.0717 74.6073C36.812 72.726 31.5557 68.4355 28.4586 62.6794C25.471 57.1246 24.8115 50.6107 26.625 44.5697C28.4386 38.5288 32.5767 33.4552 38.1298 30.4642L34.4955 24.122Z" fill="white"/>
<path d="M51.3691 77.9039C46.3013 78.1216 41.2746 76.9085 36.8638 74.4034C32.4531 71.8983 28.8365 68.2023 26.4277 63.7382C23.3482 58.0067 22.5218 51.3313 24.1104 45.0219C25.6991 38.7124 29.5882 33.2244 35.0147 29.6346L31.0495 22.6968L33.9101 21.9129C42.5633 19.5409 50.8856 19.7089 57.9506 22.4219C64.919 25.084 70.5639 30.1334 74.2695 37.0305C77.7598 43.5278 78.5275 51.1451 76.4038 58.2082C74.2801 65.2713 69.4388 71.2021 62.944 74.6972C59.3769 76.6253 55.4199 77.7215 51.3691 77.9039ZM38.0127 25.6338L41.306 31.3398L39.2293 32.4596C36.7404 33.7961 34.5394 35.6102 32.7523 37.7982C30.9652 39.9862 29.627 42.505 28.8144 45.2107C28.0017 47.9163 27.7304 50.7556 28.0161 53.5662C28.3018 56.3768 29.1389 59.1034 30.4794 61.5902C33.2963 66.8015 38.0632 70.6844 43.7365 72.3892C49.4097 74.0939 55.5273 73.4816 60.7502 70.6862C63.4408 69.2412 65.8202 67.28 67.7523 64.9147C69.6843 62.5495 71.1311 59.8265 72.01 56.9016C72.8888 53.9767 73.1824 50.9072 72.874 47.8688C72.5656 44.8303 71.6613 41.8824 70.2127 39.1938C64.0384 27.7003 52.1378 22.7579 38.0127 25.6338Z" fill="#324682"/>
<path d="M72.2487 55.9097C68.2224 51.975 67.7134 44.9151 70.7217 40.1304L90.6036 45.0169C90.8223 45.0544 91.0229 45.1624 91.1746 45.3245C91.3263 45.4865 91.4209 45.6937 91.4439 45.9145C91.467 46.1353 91.4173 46.3575 91.3023 46.5474C91.1874 46.7373 91.0135 46.8844 90.8072 46.9664L72.2487 55.9097Z" fill="#008AFF"/>
<path d="M50.9036 53.4014C53.57 53.2079 55.5298 50.2713 55.281 46.8422C55.0322 43.4132 52.669 40.7902 50.0025 40.9837C47.3361 41.1771 45.3763 44.1138 45.6251 47.5429C45.8739 50.9719 48.2371 53.5949 50.9036 53.4014Z" fill="#324682"/>
</svg>
