<?xml version="1.0" encoding="UTF-8"?>
<!DOCTYPE svg PUBLIC "-//W3C//DTD SVG 1.1//EN" "http://www.w3.org/Graphics/SVG/1.1/DTD/svg11.dtd">
<svg xmlns="http://www.w3.org/2000/svg" version="1.1" width="200px" height="200px" style="shape-rendering:geometricPrecision; text-rendering:geometricPrecision; image-rendering:optimizeQuality; fill-rule:evenodd; clip-rule:evenodd" xmlns:xlink="http://www.w3.org/1999/xlink">
<g><path style="opacity:1" fill="#052d2f" d="M -0.5,-0.5 C 66.1667,-0.5 132.833,-0.5 199.5,-0.5C 199.5,66.1667 199.5,132.833 199.5,199.5C 132.833,199.5 66.1667,199.5 -0.5,199.5C -0.5,132.833 -0.5,66.1667 -0.5,-0.5 Z"/></g>
<g><path style="opacity:1" fill="#f9fbfb" d="M 18.5,60.5 C 31.5043,60.3334 44.5043,60.5001 57.5,61C 79.8858,63.7603 91.5524,76.427 92.5,99C 91.847,122.015 80.1803,135.015 57.5,138C 44.5043,138.5 31.5043,138.667 18.5,138.5C 18.5,112.5 18.5,86.5 18.5,60.5 Z"/></g>
<g><path style="opacity:1" fill="#fafbfc" d="M 159.5,138.5 C 159.667,126.829 159.5,115.162 159,103.5C 158.283,104.044 157.783,104.711 157.5,105.5C 152.621,113.925 148.287,122.592 144.5,131.5C 140.563,131.793 136.73,131.46 133,130.5C 128.475,122.113 123.975,113.779 119.5,105.5C 119.44,104.957 119.107,104.624 118.5,104.5C 117.501,115.48 117.168,126.48 117.5,137.5C 110.833,137.5 104.167,137.5 97.5,137.5C 97.5,134.833 97.5,132.167 97.5,129.5C 106.803,109.456 106.803,89.4562 97.5,69.5C 97.5,66.8333 97.5,64.1667 97.5,61.5C 103.833,61.5 110.167,61.5 116.5,61.5C 124.172,74.6883 131.672,88.0216 139,101.5C 146.421,88.3259 153.588,74.9925 160.5,61.5C 167.134,60.5033 173.8,60.17 180.5,60.5C 180.5,86.5 180.5,112.5 180.5,138.5C 173.5,138.5 166.5,138.5 159.5,138.5 Z"/></g>
<g><path style="opacity:1" fill="#a4b8b9" d="M 116.5,61.5 C 110.167,61.5 103.833,61.5 97.5,61.5C 97.5,64.1667 97.5,66.8333 97.5,69.5C 96.5233,66.7131 96.19,63.7131 96.5,60.5C 103.354,60.176 110.021,60.5093 116.5,61.5 Z"/></g>
<g><path style="opacity:1" fill="#072d2f" d="M 42.5,81.5 C 64.5603,79.7223 72.3937,89.389 66,110.5C 63.129,115.215 58.9623,117.549 53.5,117.5C 49.8333,117.5 46.1667,117.5 42.5,117.5C 42.5,105.5 42.5,93.5 42.5,81.5 Z"/></g>
<g><path style="opacity:1" fill="#687f7f" d="M 42.5,81.5 C 42.5,93.5 42.5,105.5 42.5,117.5C 46.1667,117.5 49.8333,117.5 53.5,117.5C 49.7016,118.483 45.7016,118.817 41.5,118.5C 41.1714,105.989 41.5048,93.6554 42.5,81.5 Z"/></g>
<g><path style="opacity:1" fill="#b9caca" d="M 119.5,105.5 C 118.505,116.321 118.172,127.321 118.5,138.5C 111.167,138.5 103.833,138.5 96.5,138.5C 96.19,135.287 96.5233,132.287 97.5,129.5C 97.5,132.167 97.5,134.833 97.5,137.5C 104.167,137.5 110.833,137.5 117.5,137.5C 117.168,126.48 117.501,115.48 118.5,104.5C 119.107,104.624 119.44,104.957 119.5,105.5 Z"/></g>
<g><path style="opacity:1" fill="#4d6f71" d="M 159.5,138.5 C 158.833,127.5 158.167,116.5 157.5,105.5C 157.783,104.711 158.283,104.044 159,103.5C 159.5,115.162 159.667,126.829 159.5,138.5 Z"/></g>
</svg>
