<?xml version="1.0" encoding="UTF-8"?>
<!DOCTYPE svg PUBLIC "-//W3C//DTD SVG 1.1//EN" "http://www.w3.org/Graphics/SVG/1.1/DTD/svg11.dtd">
<svg xmlns="http://www.w3.org/2000/svg" version="1.1" width="200px" height="200px" style="shape-rendering:geometricPrecision; text-rendering:geometricPrecision; image-rendering:optimizeQuality; fill-rule:evenodd; clip-rule:evenodd" xmlns:xlink="http://www.w3.org/1999/xlink">
<g><path style="opacity:1" fill="#fefefe" d="M -0.5,-0.5 C 66.1667,-0.5 132.833,-0.5 199.5,-0.5C 199.5,66.1667 199.5,132.833 199.5,199.5C 132.833,199.5 66.1667,199.5 -0.5,199.5C -0.5,132.833 -0.5,66.1667 -0.5,-0.5 Z"/></g>
<g><path style="opacity:1" fill="#f07a0f" d="M 114.5,70.5 C 113.25,70.5774 112.417,71.244 112,72.5C 111.781,71.062 111.281,69.7287 110.5,68.5C 109.833,70.5 109.167,72.5 108.5,74.5C 106.527,73.3601 104.693,72.0267 103,70.5C 102.022,73.6693 102.522,76.5027 104.5,79C 103.692,79.3076 103.025,79.8076 102.5,80.5C 106.277,81.9961 106.277,83.6627 102.5,85.5C 102.863,86.1835 103.196,86.8501 103.5,87.5C 102.085,88.2894 100.585,88.9561 99,89.5C 97.1096,87.2975 94.2763,85.4641 90.5,84C 87.2423,81.5698 87.2423,79.7365 90.5,78.5C 91.3857,77.675 91.719,76.675 91.5,75.5C 95.1233,75.3508 95.4566,74.1842 92.5,72C 93.2664,69.5995 94.9331,68.0995 97.5,67.5C 95.2276,66.8658 93.5609,65.5324 92.5,63.5C 94.5964,59.2043 97.9298,57.371 102.5,58C 106.704,62.0356 110.704,66.2022 114.5,70.5 Z"/></g>
<g><path style="opacity:1" fill="#ef8618" d="M 92.5,63.5 C 93.5609,65.5324 95.2276,66.8658 97.5,67.5C 94.9331,68.0995 93.2664,69.5995 92.5,72C 95.4566,74.1842 95.1233,75.3508 91.5,75.5C 91.719,76.675 91.3857,77.675 90.5,78.5C 87.2423,79.7365 87.2423,81.5698 90.5,84C 94.2763,85.4641 97.1096,87.2975 99,89.5C 100.585,88.9561 102.085,88.2894 103.5,87.5C 104.434,88.5676 104.768,89.901 104.5,91.5C 102.218,90.6103 99.8848,90.4436 97.5,91C 94.3088,93.4262 90.9754,95.5928 87.5,97.5C 82.7443,97.2803 82.0776,96.2803 85.5,94.5C 88.7478,90.7564 88.0811,88.2564 83.5,87C 84.13,85.108 85.13,83.4413 86.5,82C 82.1949,78.2602 82.8615,75.5935 88.5,74C 87.6721,73.0853 86.6721,72.4186 85.5,72C 86.2524,71.3292 86.5858,70.4959 86.5,69.5C 88.1667,67.1667 90.1667,65.1667 92.5,63.5 Z"/></g>
<g><path style="opacity:1" fill="#ef700f" d="M 114.5,70.5 C 116.833,72.1667 118.833,74.1667 120.5,76.5C 117.949,77.2897 115.616,77.2897 113.5,76.5C 113.977,77.4776 114.643,78.3109 115.5,79C 113.748,82.2833 112.414,85.7833 111.5,89.5C 113.604,89.2011 115.604,89.5344 117.5,90.5C 115.833,91.5 114.5,92.8333 113.5,94.5C 114.376,95.2508 115.376,95.7508 116.5,96C 115.244,96.4169 114.577,97.2502 114.5,98.5C 110.858,96.5228 107.525,94.1895 104.5,91.5C 104.768,89.901 104.434,88.5676 103.5,87.5C 103.196,86.8501 102.863,86.1835 102.5,85.5C 106.277,83.6627 106.277,81.9961 102.5,80.5C 103.025,79.8076 103.692,79.3076 104.5,79C 102.522,76.5027 102.022,73.6693 103,70.5C 104.693,72.0267 106.527,73.3601 108.5,74.5C 109.167,72.5 109.833,70.5 110.5,68.5C 111.281,69.7287 111.781,71.062 112,72.5C 112.417,71.244 113.25,70.5774 114.5,70.5 Z"/></g>
<g><path style="opacity:1" fill="#ef640d" d="M 120.5,76.5 C 127.259,82.2551 133.259,88.5884 138.5,95.5C 136.976,94.8262 135.642,93.8262 134.5,92.5C 133.086,93.624 131.586,94.624 130,95.5C 129.873,96.7766 130.373,97.9433 131.5,99C 128.157,100.858 126.823,103.691 127.5,107.5C 122.635,105.237 118.302,102.237 114.5,98.5C 114.577,97.2502 115.244,96.4169 116.5,96C 115.376,95.7508 114.376,95.2508 113.5,94.5C 114.5,92.8333 115.833,91.5 117.5,90.5C 115.604,89.5344 113.604,89.2011 111.5,89.5C 112.414,85.7833 113.748,82.2833 115.5,79C 114.643,78.3109 113.977,77.4776 113.5,76.5C 115.616,77.2897 117.949,77.2897 120.5,76.5 Z"/></g>
<g><path style="opacity:1" fill="#eab95b" d="M 60.5,95.5 C 59.6069,99.3951 57.2736,102.062 53.5,103.5C 55.8623,100.808 58.1956,98.1413 60.5,95.5 Z"/></g>
<g><path style="opacity:1" fill="#f19019" d="M 86.5,69.5 C 86.5858,70.4959 86.2524,71.3292 85.5,72C 86.6721,72.4186 87.6721,73.0853 88.5,74C 82.8615,75.5935 82.1949,78.2602 86.5,82C 85.13,83.4413 84.13,85.108 83.5,87C 88.0811,88.2564 88.7478,90.7564 85.5,94.5C 82.0776,96.2803 82.7443,97.2803 87.5,97.5C 83.8523,100.66 79.8523,103.327 75.5,105.5C 73.5185,106.348 71.5185,106.848 69.5,107C 71.709,104.622 74.0424,102.455 76.5,100.5C 75.5,99.8333 74.5,99.1667 73.5,98.5C 75.1667,97.5 76.5,96.1667 77.5,94.5C 76.3047,93.0325 76.3047,91.5325 77.5,90C 75.6937,89.7778 74.027,88.9445 72.5,87.5C 73.1743,84.8257 74.8409,83.1591 77.5,82.5C 78.4565,80.9246 79.1231,79.258 79.5,77.5C 81.4672,74.5315 83.8005,71.8649 86.5,69.5 Z"/></g>
<g><path style="opacity:1" fill="#fcfaf5" d="M 104.5,91.5 C 107.525,94.1895 110.858,96.5228 114.5,98.5C 118.302,102.237 122.635,105.237 127.5,107.5C 129.833,109.5 132.167,111.5 134.5,113.5C 132.173,113.335 130.007,112.669 128,111.5C 126.989,112.337 125.822,112.67 124.5,112.5C 124.52,114.143 123.853,115.476 122.5,116.5C 122.833,117.5 123.5,118.167 124.5,118.5C 125.768,117.572 127.101,117.405 128.5,118C 127.366,119.016 127.699,119.683 129.5,120C 128.244,120.417 127.577,121.25 127.5,122.5C 124.833,120.833 122.167,119.167 119.5,117.5C 113.458,112.799 107.124,108.466 100.5,104.5C 96.2991,106.094 92.6324,108.428 89.5,111.5C 84.8333,114.5 80.1667,117.5 75.5,120.5C 74.9067,116.435 72.74,115.102 69,116.5C 67.4029,115.115 65.5695,114.449 63.5,114.5C 64.1667,113.833 64.8333,113.167 65.5,112.5C 69.3886,110.942 72.722,108.609 75.5,105.5C 79.8523,103.327 83.8523,100.66 87.5,97.5C 90.9754,95.5928 94.3088,93.4262 97.5,91C 99.8848,90.4436 102.218,90.6103 104.5,91.5 Z"/></g>
<g><path style="opacity:1" fill="#f09c18" d="M 79.5,77.5 C 79.1231,79.258 78.4565,80.9246 77.5,82.5C 74.8409,83.1591 73.1743,84.8257 72.5,87.5C 74.027,88.9445 75.6937,89.7778 77.5,90C 76.3047,91.5325 76.3047,93.0325 77.5,94.5C 76.5,96.1667 75.1667,97.5 73.5,98.5C 74.5,99.1667 75.5,99.8333 76.5,100.5C 74.0424,102.455 71.709,104.622 69.5,107C 71.5185,106.848 73.5185,106.348 75.5,105.5C 72.722,108.609 69.3886,110.942 65.5,112.5C 64.7402,111.107 64.0735,109.607 63.5,108C 64.6825,105.396 66.0158,102.896 67.5,100.5C 66.132,99.4063 64.9653,99.7397 64,101.5C 64.1601,98.8142 65.3268,96.4809 67.5,94.5C 66.7542,93.2638 66.4208,91.9305 66.5,90.5C 70.5,85.8333 74.8333,81.5 79.5,77.5 Z"/></g>
<g><path style="opacity:1" fill="#ed5108" d="M 138.5,95.5 C 141.797,98.2956 144.964,101.296 148,104.5C 148.757,110.32 146.424,114.32 141,116.5C 138.735,115.741 136.568,114.741 134.5,113.5C 132.167,111.5 129.833,109.5 127.5,107.5C 126.823,103.691 128.157,100.858 131.5,99C 130.373,97.9433 129.873,96.7766 130,95.5C 131.586,94.624 133.086,93.624 134.5,92.5C 135.642,93.8262 136.976,94.8262 138.5,95.5 Z"/></g>
<g><path style="opacity:1" fill="#f1a723" d="M 66.5,90.5 C 66.4208,91.9305 66.7542,93.2638 67.5,94.5C 65.3268,96.4809 64.1601,98.8142 64,101.5C 64.9653,99.7397 66.132,99.4063 67.5,100.5C 66.0158,102.896 64.6825,105.396 63.5,108C 64.0735,109.607 64.7402,111.107 65.5,112.5C 64.8333,113.167 64.1667,113.833 63.5,114.5C 61.8805,116.238 59.8805,116.738 57.5,116C 54.2647,113.775 52.2647,110.775 51.5,107C 51.3866,105.301 52.0532,104.134 53.5,103.5C 57.2736,102.062 59.6069,99.3951 60.5,95.5C 61.5,95.5 62.5,95.5 63.5,95.5C 63.2729,93.0672 64.2729,91.4006 66.5,90.5 Z"/></g>
<g><path style="opacity:1" fill="#ef382d" d="M 119.5,117.5 C 116.615,117.194 113.948,117.527 111.5,118.5C 109.407,119.045 107.407,119.878 105.5,121C 103.666,123.663 101.666,126.163 99.5,128.5C 99.1667,128.5 98.8333,128.5 98.5,128.5C 93.818,127.456 89.1514,127.289 84.5,128C 86.3325,127.252 87.9991,126.252 89.5,125C 87.9632,123.89 87.2965,122.39 87.5,120.5C 89.6648,120.884 91.3315,120.217 92.5,118.5C 90.3279,117.795 88.3279,116.795 86.5,115.5C 87.8333,114.833 89.1667,114.167 90.5,113.5C 90.1373,112.817 89.8039,112.15 89.5,111.5C 92.6324,108.428 96.2991,106.094 100.5,104.5C 107.124,108.466 113.458,112.799 119.5,117.5 Z"/></g>
<g><path style="opacity:1" fill="#ee4137" d="M 89.5,111.5 C 89.8039,112.15 90.1373,112.817 90.5,113.5C 89.1667,114.167 87.8333,114.833 86.5,115.5C 88.3279,116.795 90.3279,117.795 92.5,118.5C 91.3315,120.217 89.6648,120.884 87.5,120.5C 87.2965,122.39 87.9632,123.89 89.5,125C 87.9991,126.252 86.3325,127.252 84.5,128C 89.1514,127.289 93.818,127.456 98.5,128.5C 88.933,132.61 79.2663,136.776 69.5,141C 67.8333,141.667 66.1667,141.667 64.5,141C 63.6959,139.229 62.5292,137.729 61,136.5C 60.3333,134.833 60.3333,133.167 61,131.5C 65.9915,127.934 70.8248,124.268 75.5,120.5C 80.1667,117.5 84.8333,114.5 89.5,111.5 Z"/></g>
<g><path style="opacity:1" fill="#ee6e12" d="M 111.5,118.5 C 116.238,117.742 120.238,119.075 123.5,122.5C 120.144,122.847 116.81,123.18 113.5,123.5C 115.082,126.291 117.415,127.458 120.5,127C 118.729,126.465 118.396,125.631 119.5,124.5C 120.7,125.531 122.034,126.365 123.5,127C 121.377,128.194 119.043,128.86 116.5,129C 115.572,129.388 114.905,130.055 114.5,131C 115.43,133.435 117.097,134.935 119.5,135.5C 112.733,133.577 106.067,131.244 99.5,128.5C 101.666,126.163 103.666,123.663 105.5,121C 107.407,119.878 109.407,119.045 111.5,118.5 Z"/></g>
<g><path style="opacity:1" fill="#ef590d" d="M 111.5,118.5 C 113.948,117.527 116.615,117.194 119.5,117.5C 122.167,119.167 124.833,120.833 127.5,122.5C 131.5,125.5 135.5,128.5 139.5,131.5C 138.85,133.435 138.517,135.435 138.5,137.5C 137.368,139.799 135.535,141.132 133,141.5C 129.632,140.112 126.132,138.945 122.5,138C 121.058,137.623 120.058,136.79 119.5,135.5C 117.097,134.935 115.43,133.435 114.5,131C 114.905,130.055 115.572,129.388 116.5,129C 119.043,128.86 121.377,128.194 123.5,127C 122.034,126.365 120.7,125.531 119.5,124.5C 118.396,125.631 118.729,126.465 120.5,127C 117.415,127.458 115.082,126.291 113.5,123.5C 116.81,123.18 120.144,122.847 123.5,122.5C 120.238,119.075 116.238,117.742 111.5,118.5 Z"/></g>
<g><path style="opacity:1" fill="#dd6a3b" d="M 139.5,131.5 C 140.794,133.68 140.461,135.68 138.5,137.5C 138.517,135.435 138.85,133.435 139.5,131.5 Z"/></g>
</svg>
