<?xml version="1.0" encoding="UTF-8"?>
<!DOCTYPE svg PUBLIC "-//W3C//DTD SVG 1.1//EN" "http://www.w3.org/Graphics/SVG/1.1/DTD/svg11.dtd">
<svg xmlns="http://www.w3.org/2000/svg" version="1.1" width="200px" height="200px" style="shape-rendering:geometricPrecision; text-rendering:geometricPrecision; image-rendering:optimizeQuality; fill-rule:evenodd; clip-rule:evenodd" xmlns:xlink="http://www.w3.org/1999/xlink">
<g><path style="opacity:1" fill="#fefefd" d="M -0.5,-0.5 C 66.1667,-0.5 132.833,-0.5 199.5,-0.5C 199.5,66.1667 199.5,132.833 199.5,199.5C 132.833,199.5 66.1667,199.5 -0.5,199.5C -0.5,132.833 -0.5,66.1667 -0.5,-0.5 Z"/></g>
<g><path style="opacity:1" fill="#dbf4c9" d="M 186.5,25.5 C 173.5,25.5 160.5,25.5 147.5,25.5C 144.721,25.2786 142.054,25.612 139.5,26.5C 146.97,25.169 154.804,24.5023 163,24.5C 171.007,24.5003 178.841,24.8336 186.5,25.5 Z"/></g>
<g><path style="opacity:1" fill="#6dc537" d="M 147.5,25.5 C 160.5,25.5 173.5,25.5 186.5,25.5C 188.229,26.1175 189.729,27.1175 191,28.5C 191.805,31.6965 191.638,34.6965 190.5,37.5C 189.711,37.7828 189.044,38.2828 188.5,39C 183.511,39.4993 178.511,39.6659 173.5,39.5C 165.5,39.5 157.5,39.5 149.5,39.5C 149.397,36.7814 149.731,34.1147 150.5,31.5C 149.511,29.5061 148.511,27.5061 147.5,25.5 Z"/></g>
<g><path style="opacity:1" fill="#eab715" d="M 147.5,25.5 C 148.511,27.5061 149.511,29.5061 150.5,31.5C 149.731,34.1147 149.397,36.7814 149.5,39.5C 147.354,41.7749 145.688,44.4415 144.5,47.5C 140.482,58.6319 135.982,69.6319 131,80.5C 130.502,82.5444 129.335,83.8777 127.5,84.5C 124.607,79.7672 122.273,74.7672 120.5,69.5C 125.372,55.73 130.872,42.0633 137,28.5C 137.708,27.6195 138.542,26.9528 139.5,26.5C 142.054,25.612 144.721,25.2786 147.5,25.5 Z"/></g>
<g><path style="opacity:1" fill="#3e91a4" d="M 190.5,37.5 C 190.204,39.403 189.537,41.0697 188.5,42.5C 183.944,40.5583 178.944,39.8917 173.5,40.5C 173.5,40.1667 173.5,39.8333 173.5,39.5C 178.511,39.6659 183.511,39.4993 188.5,39C 189.044,38.2828 189.711,37.7828 190.5,37.5 Z"/></g>
<g><path style="opacity:1" fill="#fafcf8" d="M 149.5,39.5 C 157.5,39.5 165.5,39.5 173.5,39.5C 173.5,39.8333 173.5,40.1667 173.5,40.5C 163.438,64.5117 153.271,88.5117 143,112.5C 137.605,103.277 132.438,93.9435 127.5,84.5C 129.335,83.8777 130.502,82.5444 131,80.5C 135.982,69.6319 140.482,58.6319 144.5,47.5C 145.688,44.4415 147.354,41.7749 149.5,39.5 Z"/></g>
<g><path style="opacity:1" fill="#1578c3" d="M 16.5,35.5 C 30.504,35.3334 44.504,35.5001 58.5,36C 60.16,37.4877 61.16,39.321 61.5,41.5C 60.7399,47.9059 57.0733,50.5726 50.5,49.5C 42.1667,49.5 33.8333,49.5 25.5,49.5C 23.2292,44.3351 20.2292,39.6684 16.5,35.5 Z"/></g>
<g><path style="opacity:1" fill="#fcfbfa" d="M 25.5,49.5 C 33.8333,49.5 42.1667,49.5 50.5,49.5C 56.2013,63.9253 62.868,77.9253 70.5,91.5C 72.922,100.076 77.7553,101.743 85,96.5C 89.2387,85.0287 93.7387,73.6954 98.5,62.5C 103.94,70.3772 108.606,78.7105 112.5,87.5C 102.586,108.999 92.9197,130.666 83.5,152.5C 63.9148,118.332 44.5814,83.9985 25.5,49.5 Z"/></g>
<g><path style="opacity:1" fill="#da2e88" d="M 61.5,41.5 C 67.179,52.193 72.8457,62.8596 78.5,73.5C 76.7217,80.0402 74.055,86.0402 70.5,91.5C 62.868,77.9253 56.2013,63.9253 50.5,49.5C 57.0733,50.5726 60.7399,47.9059 61.5,41.5 Z"/></g>
<g><path style="opacity:1" fill="#4c2087" d="M 105.5,43.5 C 103.367,49.8971 101.034,56.2304 98.5,62.5C 93.7387,73.6954 89.2387,85.0287 85,96.5C 77.7553,101.743 72.922,100.076 70.5,91.5C 74.055,86.0402 76.7217,80.0402 78.5,73.5C 82.7284,62.0455 87.2284,50.7122 92,39.5C 98.3339,34.7322 102.834,36.0656 105.5,43.5 Z"/></g>
<g><path style="opacity:1" fill="#1479c1" d="M 173.5,40.5 C 178.944,39.8917 183.944,40.5583 188.5,42.5C 175.843,73.9757 162.51,105.142 148.5,136C 143.903,138.54 140.07,137.707 137,133.5C 131.123,122.407 125.29,111.407 119.5,100.5C 117.018,96.1797 114.685,91.8463 112.5,87.5C 108.606,78.7105 103.94,70.3772 98.5,62.5C 101.034,56.2304 103.367,49.8971 105.5,43.5C 110.5,52.1667 115.5,60.8333 120.5,69.5C 122.273,74.7672 124.607,79.7672 127.5,84.5C 132.438,93.9435 137.605,103.277 143,112.5C 153.271,88.5117 163.438,64.5117 173.5,40.5 Z"/></g>
<g><path style="opacity:1" fill="#f33a32" d="M 16.5,35.5 C 20.2292,39.6684 23.2292,44.3351 25.5,49.5C 44.5814,83.9985 63.9148,118.332 83.5,152.5C 85.7204,157.272 88.2204,161.938 91,166.5C 91.49,167.793 91.6567,169.127 91.5,170.5C 90.1262,177.018 86.2929,179.018 80,176.5C 55.6667,132.833 31.3333,89.1667 7,45.5C 5.50558,37.8265 8.67224,34.4931 16.5,35.5 Z"/></g>
<g><path style="opacity:1" fill="#ecb715" d="M 112.5,87.5 C 114.685,91.8463 117.018,96.1797 119.5,100.5C 120.829,103.544 120.663,106.544 119,109.5C 110.432,127.964 102.432,146.63 95,165.5C 94.0978,167.431 92.9312,169.097 91.5,170.5C 91.6567,169.127 91.49,167.793 91,166.5C 88.2204,161.938 85.7204,157.272 83.5,152.5C 92.9197,130.666 102.586,108.999 112.5,87.5 Z"/></g>
</svg>
