<?xml version="1.0" encoding="UTF-8"?>
<!DOCTYPE svg PUBLIC "-//W3C//DTD SVG 1.1//EN" "http://www.w3.org/Graphics/SVG/1.1/DTD/svg11.dtd">
<svg xmlns="http://www.w3.org/2000/svg" version="1.1" width="200px" height="200px" style="shape-rendering:geometricPrecision; text-rendering:geometricPrecision; image-rendering:optimizeQuality; fill-rule:evenodd; clip-rule:evenodd" xmlns:xlink="http://www.w3.org/1999/xlink">
<g><path style="opacity:1" fill="#000000" d="M -0.5,-0.5 C 66.1667,-0.5 132.833,-0.5 199.5,-0.5C 199.5,66.1667 199.5,132.833 199.5,199.5C 132.833,199.5 66.1667,199.5 -0.5,199.5C -0.5,132.833 -0.5,66.1667 -0.5,-0.5 Z"/></g>
<g><path style="opacity:1" fill="#f9f9f9" d="M 130.5,64.5 C 140.833,64.5 151.167,64.5 161.5,64.5C 161.667,86.5025 161.5,108.503 161,130.5C 160.535,131.931 159.701,133.097 158.5,134C 144.167,134.667 129.833,134.667 115.5,134C 121.167,129 126.833,124 132.5,119C 135.833,118.667 139.167,118.333 142.5,118C 143,117.5 143.5,117 144,116.5C 144.667,104.833 144.667,93.1667 144,81.5C 143.044,80.1059 141.711,79.4393 140,79.5C 137.181,79.9931 134.681,81.1597 132.5,83C 110.167,100 87.8333,117 65.5,134C 56.5,134.667 47.5,134.667 38.5,134C 69.0673,110.586 99.734,87.419 130.5,64.5 Z"/></g>
<g><path style="opacity:1" fill="#f3f3f3" d="M 98.5,118.5 C 105.841,118.334 113.174,118.5 120.5,119C 114.792,124.377 108.792,129.377 102.5,134C 94.8333,134.667 87.1667,134.667 79.5,134C 86.2708,129.293 92.6041,124.126 98.5,118.5 Z"/></g>
</svg>
