<?xml version="1.0" encoding="UTF-8"?>
<svg version="1.1" xmlns="http://www.w3.org/2000/svg" width="200" height="200">
<path d="M0 0 C66 0 132 0 200 0 C200 66 200 132 200 200 C134 200 68 200 0 200 C0 134 0 68 0 0 Z " fill="#FDFDFE" transform="translate(0,0)"/>
<path d="M0 0 C10.5645798 -0.74515061 17.42758392 0.66589861 25.8125 7.1875 C31.1503056 14.05039292 33.91958928 20.30327966 33.46875 29.1171875 C31.95633441 38.41854338 25.35894874 44.60806586 18 50 C12.11395802 52.53708706 5.17618748 53.05872916 -1 51 C-1 50.34 -1 49.68 -1 49 C-1.87011719 48.814375 -1.87011719 48.814375 -2.7578125 48.625 C-8.53082436 47.10077245 -11.39058324 45.10916751 -14.80859375 40.23046875 C-18.77965047 32.79612977 -19.68948658 23.59969005 -17.2421875 15.48828125 C-16.29143693 13.5231472 -15.25237956 11.78539923 -14 10 C-13.401875 9.071875 -12.80375 8.14375 -12.1875 7.1875 C-9.39718359 4.39718359 -6.70763547 3.28081953 -3 2 C-2.01 2 -1.02 2 0 2 C0 1.34 0 0.68 0 0 Z " fill="#2B59D1" transform="translate(141,64)"/>
<path d="M0 0 C1.65322266 0.01740234 1.65322266 0.01740234 3.33984375 0.03515625 C4.44457031 0.04417969 5.54929687 0.05320312 6.6875 0.0625 C7.54214844 0.07410156 8.39679688 0.08570312 9.27734375 0.09765625 C9.27734375 3.09765625 9.27734375 3.09765625 7.96484375 4.484375 C7.40796875 5.01675781 6.85109375 5.54914063 6.27734375 6.09765625 C5.23504897 7.67466997 4.23774624 9.2819739 3.27734375 10.91015625 C2.78234375 11.74160156 2.28734375 12.57304688 1.77734375 13.4296875 C0.74030835 15.2742062 -0.24519377 17.14830503 -1.1875 19.04296875 C-3.28659882 23.21980151 -5.70206174 27.18582414 -8.1015625 31.1953125 C-9.54983965 33.78825207 -10.69662716 36.31563709 -11.72265625 39.09765625 C-12.38265625 39.09765625 -13.04265625 39.09765625 -13.72265625 39.09765625 C-14.71265625 42.06765625 -15.70265625 45.03765625 -16.72265625 48.09765625 C-19.72265625 47.09765625 -19.72265625 47.09765625 -21.0390625 44.953125 C-21.45027344 44.07269531 -21.86148438 43.19226563 -22.28515625 42.28515625 C-22.69894531 41.41246094 -23.11273438 40.53976563 -23.5390625 39.640625 C-24.12494141 38.38185547 -24.12494141 38.38185547 -24.72265625 37.09765625 C-25.38482983 35.76208582 -26.04979531 34.42787442 -26.72265625 33.09765625 C-27.38265625 33.09765625 -28.04265625 33.09765625 -28.72265625 33.09765625 C-30.25260138 35.17369717 -30.25260138 35.17369717 -31.72265625 37.78515625 C-32.23828125 38.65527344 -32.75390625 39.52539062 -33.28515625 40.421875 C-34.63480468 42.9341282 -35.72277182 45.4296954 -36.72265625 48.09765625 C-38.20765625 47.60265625 -38.20765625 47.60265625 -39.72265625 47.09765625 C-40.38932292 44.76432292 -41.05598958 42.43098958 -41.72265625 40.09765625 C-43.20765625 39.60265625 -43.20765625 39.60265625 -44.72265625 39.09765625 C-45.78515625 36.98828125 -45.78515625 36.98828125 -46.72265625 34.34765625 C-48.06278739 30.61762458 -49.63505394 27.46539206 -51.72265625 24.09765625 C-52.44702232 22.83001564 -53.16527717 21.55887226 -53.87890625 20.28515625 C-54.26175781 19.60195312 -54.64460938 18.91875 -55.0390625 18.21484375 C-55.828125 16.80338542 -56.6171875 15.39192708 -57.40625 13.98046875 C-57.78910156 13.29726562 -58.17195313 12.6140625 -58.56640625 11.91015625 C-58.93378906 11.25402344 -59.30117188 10.59789063 -59.6796875 9.921875 C-60.58676327 8.33534173 -61.54139494 6.77618328 -62.50390625 5.22265625 C-63.72265625 3.09765625 -63.72265625 3.09765625 -63.72265625 1.09765625 C-62.11932834 1.01643701 -60.51481599 0.95836491 -58.91015625 0.91015625 C-57.57017578 0.85794922 -57.57017578 0.85794922 -56.203125 0.8046875 C-53.72265625 1.09765625 -53.72265625 1.09765625 -51.8984375 2.484375 C-50.72265625 4.09765625 -50.72265625 4.09765625 -50.72265625 6.09765625 C-50.06265625 6.09765625 -49.40265625 6.09765625 -48.72265625 6.09765625 C-47.34765625 8.84765625 -47.34765625 8.84765625 -45.97265625 11.59765625 C-45.42480469 12.68691406 -44.87695312 13.77617188 -44.3125 14.8984375 C-43.36654127 16.80197607 -42.4360148 18.71350966 -41.5390625 20.640625 C-40.67120446 22.49453187 -39.70523249 24.30191346 -38.72265625 26.09765625 C-37.73265625 26.42765625 -36.74265625 26.75765625 -35.72265625 27.09765625 C-35.635 26.41445312 -35.54734375 25.73125 -35.45703125 25.02734375 C-33.92216445 18.90420493 -29.94364039 13.47830408 -26.72265625 8.09765625 C-26.29726563 7.28296875 -25.871875 6.46828125 -25.43359375 5.62890625 C-24.34765625 3.72265625 -24.34765625 3.72265625 -21.72265625 1.09765625 C-18.31011101 0.54384288 -15.14434999 0.67908012 -11.72265625 1.09765625 C-12.81300439 5.24097916 -14.52171082 8.50436879 -16.78515625 12.09765625 C-19.04471501 15.77703556 -20.72265625 18.66436925 -20.72265625 23.09765625 C-19.7566005 25.84719953 -19.34250111 26.78773382 -16.72265625 28.09765625 C-16.45453125 27.19015625 -16.18640625 26.28265625 -15.91015625 25.34765625 C-14.72265625 22.09765625 -14.72265625 22.09765625 -13.28515625 20.22265625 C-10.98956608 17.10065362 -10.00081967 13.74955173 -8.72265625 10.09765625 C-8.06265625 10.09765625 -7.40265625 10.09765625 -6.72265625 10.09765625 C-6.51769531 9.45957031 -6.31273437 8.82148437 -6.1015625 8.1640625 C-5.83214844 7.33777344 -5.56273437 6.51148437 -5.28515625 5.66015625 C-5.01832031 4.83644531 -4.75148437 4.01273437 -4.4765625 3.1640625 C-3.36941548 0.12944709 -3.34822947 0.12009431 0 0 Z " fill="#2051CF" transform="translate(85.72265625,64.90234375)"/>
<path d="M0 0 C0.99 0.33 1.98 0.66 3 1 C3.71949183 2.64455275 4.36971413 4.31923769 5 6 C6.59622395 9.03930465 8.30735908 12.01355883 10 15 C10.85549849 16.54092801 11.70969441 18.08258001 12.5625 19.625 C14.02561751 22.25952311 15.50033167 24.88612027 17 27.5 C27 44.94939271 27 44.94939271 27 48 C25.3973218 48.10824843 23.79254252 48.18570645 22.1875 48.25 C21.29417969 48.29640625 20.40085938 48.3428125 19.48046875 48.390625 C17 48 17 48 15.17578125 46.171875 C14 44 14 44 14 41 C5.42 41 -3.16 41 -12 41 C-12 41.99 -12 42.98 -12 44 C-12.66 44 -13.32 44 -14 44 C-14.33 45.32 -14.66 46.64 -15 48 C-18.63 48 -22.26 48 -26 48 C-25.34 45.69 -24.68 43.38 -24 41 C-23.34 41 -22.68 41 -22 41 C-21.82984375 40.41992188 -21.6596875 39.83984375 -21.484375 39.2421875 C-19.92025853 34.20040781 -18.07361979 30.33922795 -15 26 C-13.71535153 23.73297329 -12.47541973 21.44586638 -11.24609375 19.1484375 C-10 17 -10 17 -8.4375 14.9375 C-6.79326423 12.87891946 -6.79326423 12.87891946 -5.5625 9.625 C-4.00214286 6.00497142 -2.26305381 3.19948987 0 0 Z " fill="#2D5AD0" transform="translate(101,66)"/>
<path d="M0 0 C4.88169605 2.26650174 7.59625754 5.19251507 10 10 C10.8185236 16.44587332 9.64523079 19.688378 6 25 C3.92037157 27.49555411 3.17692935 27.94102355 0 29 C-1.8096818 29.11880354 -3.62396447 29.1751965 -5.4375 29.1875 C-6.85869141 29.20876953 -6.85869141 29.20876953 -8.30859375 29.23046875 C-11.11007765 28.9905739 -12.66220733 28.53130524 -15 27 C-19.02487064 21.59517372 -20.5543224 17.76273327 -20 11 C-16.32270287 0.61592262 -10.66845667 -1.27277834 0 0 Z " fill="#F6F9FD" transform="translate(153,75)"/>
<path d="M0 0 C-0.33 1.010625 -0.66 2.02125 -1 3.0625 C-2.25523406 7.62532161 -3.17250565 11.75303796 -0.87890625 16.1484375 C0.01668998 17.55399079 0.94387047 18.94008352 1.90625 20.30078125 C3 22 3 22 3 24 C9.66677322 25.9718625 17.27074066 25.45497499 24 24 C22.77065985 27.68802044 21.06140622 28.72356973 18 31 C19.32 31.99 20.64 32.98 22 34 C18.71480525 35.09506492 16.26336585 35.09960608 12.8125 35.0625 C11.18248047 35.04896484 11.18248047 35.04896484 9.51953125 35.03515625 C8.68808594 35.02355469 7.85664063 35.01195312 7 35 C7 34.01 7 33.02 7 32 C6.01 32.495 6.01 32.495 5 33 C1.6875 33.375 1.6875 33.375 -2 33 C-4.75 30.75 -4.75 30.75 -7 28 C-7.556875 27.360625 -8.11375 26.72125 -8.6875 26.0625 C-11.77007358 21.2184558 -12.27420982 16.4594401 -12.25 10.8125 C-12.25515625 9.60207031 -12.2603125 8.39164063 -12.265625 7.14453125 C-12 4 -12 4 -10 1 C-6.32859149 -0.59626457 -3.81667636 -1.46795245 0 0 Z " fill="#1A4DD1" transform="translate(135,78)"/>
<path d="M0 0 C3.38324768 3.03325654 5.07058659 5.90964356 7 10 C7.78302999 11.42145862 8.57547437 12.8377538 9.375 14.25 C17 27.90083587 17 27.90083587 17 31 C15.3973218 31.10824843 13.79254252 31.18570645 12.1875 31.25 C11.29417969 31.29640625 10.40085937 31.3428125 9.48046875 31.390625 C7 31 7 31 5.17578125 29.171875 C4 27 4 27 4 24 C-4.25 24 -12.5 24 -21 24 C-21 23.34 -21 22.68 -21 22 C-13.41 21.67 -5.82 21.34 2 21 C2.33 19.02 2.66 17.04 3 15 C3.66 15 4.32 15 5 15 C5 14.34 5 13.68 5 13 C3.35 13.33 1.7 13.66 0 14 C0.185625 12.989375 0.37125 11.97875 0.5625 10.9375 C0.99768247 7.02085773 0.70853021 3.85755337 0 0 Z M-10 3 C-9.01 3.33 -8.02 3.66 -7 4 C-6.67 4.99 -6.34 5.98 -6 7 C-5.34 7.33 -4.68 7.66 -4 8 C-4 8.66 -4 9.32 -4 10 C-3.01 10 -2.02 10 -1 10 C-0.61781233 11.65614657 -0.28604898 13.32457024 0 15 C-0.33 15.33 -0.66 15.66 -1 16 C-0.34 16.33 0.32 16.66 1 17 C1 17.66 1 18.32 1 19 C-1.97 18.505 -1.97 18.505 -5 18 C-5 17.67 -5 17.34 -5 17 C-8.63 16.67 -12.26 16.34 -16 16 C-15.15071984 11.75359922 -14.67656891 10.07480937 -12.4375 6.6875 C-11.98246094 5.99011719 -11.52742188 5.29273437 -11.05859375 4.57421875 C-10.70925781 4.05472656 -10.35992187 3.53523438 -10 3 Z " fill="#2E5ACD" transform="translate(111,83)"/>
<path d="M0 0 C0.66 0.33 1.32 0.66 2 1 C1.67 2.65 1.34 4.3 1 6 C1.66 6 2.32 6 3 6 C3 6.66 3 7.32 3 8 C4.49853516 8.07347656 4.49853516 8.07347656 6.02734375 8.1484375 C7.96287109 8.26058594 7.96287109 8.26058594 9.9375 8.375 C11.22527344 8.44460937 12.51304688 8.51421875 13.83984375 8.5859375 C15.40412109 8.79089844 15.40412109 8.79089844 17 9 C17.33 9.66 17.66 10.32 18 11 C20.02463255 11.65213292 20.02463255 11.65213292 22 12 C22 11.34 22 10.68 22 10 C21.01 9.67 20.02 9.34 19 9 C21.3125 6.9375 21.3125 6.9375 24 5 C24.99 5.33 25.98 5.66 27 6 C26.67 6.99 26.34 7.98 26 9 C25.67 9 25.34 9 25 9 C24.34 10.98 23.68 12.96 23 15 C15.41 15 7.82 15 0 15 C-0.33 16.65 -0.66 18.3 -1 20 C-1.66 20 -2.32 20 -3 20 C-3.33 20.99 -3.66 21.98 -4 23 C-6.97 23 -9.94 23 -13 23 C-12.34 22.67 -11.68 22.34 -11 22 C-9.7908836 19.43951821 -9.03103706 17.25450387 -8.6875 14.4375 C-8 12 -8 12 -5.5625 10.125 C-2.27892544 7.40203573 -1.92405832 5.0812576 -1 1 C-0.67 0.67 -0.34 0.34 0 0 Z " fill="#194CD2" transform="translate(90,90)"/>
<path d="M0 0 C1.65322266 0.01740234 1.65322266 0.01740234 3.33984375 0.03515625 C4.44457031 0.04417969 5.54929687 0.05320312 6.6875 0.0625 C7.54214844 0.07410156 8.39679688 0.08570312 9.27734375 0.09765625 C9.27734375 3.09765625 9.27734375 3.09765625 7.96484375 4.484375 C7.40796875 5.01675781 6.85109375 5.54914063 6.27734375 6.09765625 C2.89782534 11.21093802 -0.09949635 16.55987424 -2.72265625 22.09765625 C-4.04265625 22.09765625 -5.36265625 22.09765625 -6.72265625 22.09765625 C-7.21765625 22.61328125 -7.71265625 23.12890625 -8.22265625 23.66015625 C-8.71765625 24.13453125 -9.21265625 24.60890625 -9.72265625 25.09765625 C-11.78515625 24.72265625 -11.78515625 24.72265625 -13.72265625 24.09765625 C-14.38265625 24.42765625 -15.04265625 24.75765625 -15.72265625 25.09765625 C-15.29146484 24.25074219 -15.29146484 24.25074219 -14.8515625 23.38671875 C-13.72632875 21.10510292 -12.68426439 18.80123674 -11.66015625 16.47265625 C-10.71473553 14.32494578 -9.77208412 12.196512 -8.72265625 10.09765625 C-8.06265625 10.09765625 -7.40265625 10.09765625 -6.72265625 10.09765625 C-6.51769531 9.45957031 -6.31273438 8.82148437 -6.1015625 8.1640625 C-5.83214844 7.33777344 -5.56273438 6.51148437 -5.28515625 5.66015625 C-4.88490234 4.42458984 -4.88490234 4.42458984 -4.4765625 3.1640625 C-3.36941548 0.12944709 -3.34822947 0.12009431 0 0 Z " fill="#2857D0" transform="translate(85.72265625,64.90234375)"/>
<path d="M0 0 C0.66 0.99 1.32 1.98 2 3 C3.65 2.01 5.3 1.02 7 0 C5.94651352 3.16045943 4.59985901 5.66315068 2.625 8.3125 C0.30738608 11.44127879 -1.41793151 14.64528812 -3.09375 18.15234375 C-4 20 -4 20 -5.625 22.6875 C-7.03417005 25.05746782 -8.04133023 27.418966 -9 30 C-9.66 30 -10.32 30 -11 30 C-11.66 32.31 -12.32 34.62 -13 37 C-9.37 37 -5.74 37 -2 37 C-2 37.33 -2 37.66 -2 38 C-6.29 38 -10.58 38 -15 38 C-15.495 36.515 -15.495 36.515 -16 35 C-16.66 34.67 -17.32 34.34 -18 34 C-17.125 29.25 -17.125 29.25 -16 27 C-15.34 27 -14.68 27 -14 27 C-13.72736328 26.09507813 -13.72736328 26.09507813 -13.44921875 25.171875 C-13.19785156 24.37265625 -12.94648437 23.5734375 -12.6875 22.75 C-12.44386719 21.96109375 -12.20023437 21.1721875 -11.94921875 20.359375 C-10.93674305 17.84276873 -9.65449228 16.13942967 -8 14 C-6.9513049 12.16144804 -5.93157149 10.30615101 -4.9375 8.4375 C-3.38110991 5.51877355 -1.83649558 2.75474337 0 0 Z " fill="#D7E3FA" transform="translate(88,77)"/>
<path d="M0 0 C13.81776765 -0.55353075 13.81776765 -0.55353075 19 3 C18.67 3.66 18.34 4.32 18 5 C17.13036621 4.75552124 17.13036621 4.75552124 16.24316406 4.50610352 C12.77326877 3.72322444 9.287377 3.89687641 5.75 3.9375 C4.63238281 3.94426758 4.63238281 3.94426758 3.4921875 3.95117188 C1.6614236 3.96290754 -0.16929873 3.9808415 -2 4 C-2 4.66 -2 5.32 -2 6 C-1.01 6.33 -0.02 6.66 1 7 C0.01 7.66 -0.98 8.32 -2 9 C-0.77023438 8.98259766 -0.77023438 8.98259766 0.484375 8.96484375 C2.10085937 8.95130859 2.10085937 8.95130859 3.75 8.9375 C5.35101563 8.92009766 5.35101563 8.92009766 6.984375 8.90234375 C9.53368501 8.98489913 11.57933591 9.25382442 14 10 C14 10.66 14 11.32 14 12 C13.04738281 11.94199219 12.09476563 11.88398437 11.11328125 11.82421875 C3.51172726 11.32782427 3.51172726 11.32782427 -3.25 14.1875 C-6.0965848 18.76236842 -7.25559112 22.66506967 -8 28 C-8.33 28 -8.66 28 -9 28 C-9.34615998 22.34605369 -8.43425238 18.96993194 -6 14 C-9.3 14.33 -12.6 14.66 -16 15 C-14.06854336 9.3665848 -11.82536492 5.92869443 -6.4375 3.1875 C-3 2 -3 2 0 2 C0 1.34 0 0.68 0 0 Z " fill="#335ECF" transform="translate(141,64)"/>
<path d="M0 0 C1.12148437 -0.01417969 2.24296875 -0.02835937 3.3984375 -0.04296875 C6.57384842 0.18384632 8.76734718 0.83359332 11.625 2.1875 C11.625 2.8475 11.625 3.5075 11.625 4.1875 C12.945 4.1875 14.265 4.1875 15.625 4.1875 C15.728125 4.826875 15.83125 5.46625 15.9375 6.125 C16.2778125 7.1459375 16.2778125 7.1459375 16.625 8.1875 C17.615 8.5175 18.605 8.8475 19.625 9.1875 C18.965 11.4975 18.305 13.8075 17.625 16.1875 C16.635 16.1875 15.645 16.1875 14.625 16.1875 C14.625 15.1975 14.625 14.2075 14.625 13.1875 C13.861875 13.06375 13.09875 12.94 12.3125 12.8125 C9.625 12.1875 9.625 12.1875 6.625 10.1875 C6.625 9.1975 6.625 8.2075 6.625 7.1875 C1.015 7.1875 -4.595 7.1875 -10.375 7.1875 C-9.385 6.1975 -8.395 5.2075 -7.375 4.1875 C-8.035 3.8575 -8.695 3.5275 -9.375 3.1875 C-9.375 2.5275 -9.375 1.8675 -9.375 1.1875 C-6.0588381 0.0821127 -3.48963365 0.01996358 0 0 Z " fill="#1A4ED2" transform="translate(148.375,66.8125)"/>
<path d="M0 0 C3.35332656 3.00643071 5.13013668 5.9202982 7 10 C7.4125 10.721875 7.825 11.44375 8.25 12.1875 C9 14 9 14 8 17 C6 16 6 16 5 13 C3.35 13.33 1.7 13.66 0 14 C0.185625 12.989375 0.37125 11.97875 0.5625 10.9375 C0.99768247 7.02085773 0.70853021 3.85755337 0 0 Z M-10 3 C-9.01 3.33 -8.02 3.66 -7 4 C-6.67 4.99 -6.34 5.98 -6 7 C-5.34 7.33 -4.68 7.66 -4 8 C-4 8.66 -4 9.32 -4 10 C-3.01 10 -2.02 10 -1 10 C-0.61781233 11.65614657 -0.28604898 13.32457024 0 15 C-0.33 15.33 -0.66 15.66 -1 16 C-0.34 16.33 0.32 16.66 1 17 C1 17.66 1 18.32 1 19 C-1.97 18.505 -1.97 18.505 -5 18 C-5 17.67 -5 17.34 -5 17 C-8.63 16.67 -12.26 16.34 -16 16 C-15.15071984 11.75359922 -14.67656891 10.07480937 -12.4375 6.6875 C-11.98246094 5.99011719 -11.52742188 5.29273437 -11.05859375 4.57421875 C-10.70925781 4.05472656 -10.35992187 3.53523438 -10 3 Z " fill="#3761D0" transform="translate(111,83)"/>
<path d="M0 0 C0.99 0 1.98 0 3 0 C3.66 2.97 4.32 5.94 5 9 C5.99 8.67 6.98 8.34 8 8 C8.66 8.33 9.32 8.66 10 9 C15.3666902 9.40843837 20.10799291 9.44600355 25 7 C26.32676508 6.64141484 27.65835921 6.2981424 29 6 C27.77065985 9.68802044 26.06140622 10.72356973 23 13 C24.32 13.99 25.64 14.98 27 16 C23.71480525 17.09506492 21.26336585 17.09960608 17.8125 17.0625 C16.18248047 17.04896484 16.18248047 17.04896484 14.51953125 17.03515625 C13.68808594 17.02355469 12.85664063 17.01195313 12 17 C12 16.01 12 15.02 12 14 C9.69 14.33 7.38 14.66 5 15 C4.67 14.01 4.34 13.02 4 12 C3.34 12 2.68 12 2 12 C2 11.01 2 10.02 2 9 C1.34 9 0.68 9 0 9 C-1.125 2.25 -1.125 2.25 0 0 Z " fill="#194CD4" transform="translate(130,96)"/>
<path d="M0 0 C3.96 0 7.92 0 12 0 C12 1.98 12 3.96 12 6 C12.66 5.67 13.32 5.34 14 5 C14 5.99 14 6.98 14 8 C14.66 8 15.32 8 16 8 C16 8.66 16 9.32 16 10 C15.34 10 14.68 10 14 10 C13.82984375 10.56847656 13.6596875 11.13695313 13.484375 11.72265625 C11.84672367 16.94049213 9.85407144 21.33834998 7 26 C6.67 26.66 6.34 27.32 6 28 C3 27 3 27 1.75 25.3125 C0.58765443 21.72860117 1.23769616 18.64340533 2.81933594 15.23364258 C3.83710456 13.37699043 4.9027884 11.56078278 6 9.75 C6.72934215 8.51572868 7.45851642 7.28135814 8.1875 6.046875 C8.785625 5.04140625 9.38375 4.0359375 10 3 C10.33 2.34 10.66 1.68 11 1 C9.3745692 1.14095064 7.74965949 1.28792087 6.125 1.4375 C5.22007813 1.51871094 4.31515625 1.59992188 3.3828125 1.68359375 C0.98889139 1.86989285 0.98889139 1.86989285 -1 3 C-0.67 2.01 -0.34 1.02 0 0 Z " fill="#D7E2F8" transform="translate(63,65)"/>
<path d="M0 0 C2.85402833 0.08805532 3.76190383 0.14015924 6.0625 1.9375 C7.39011013 5.1735497 7.26216912 7.91406866 7.0625 11.375 C6.0725 11.705 5.0825 12.035 4.0625 12.375 C4.0625 13.035 4.0625 13.695 4.0625 14.375 C-3.40640232 14.74232306 -3.40640232 14.74232306 -5.7109375 13.1484375 C-7.3297554 10.80785366 -7.14020909 9.59905199 -6.75 6.8125 C-6.65332031 6.02746094 -6.55664062 5.24242188 -6.45703125 4.43359375 C-5.44785277 0.43481888 -4.01207757 0.38210263 0 0 Z " fill="#4B4C4B" transform="translate(60.9375,119.625)"/>
<path d="M0 0 C7.22891566 -0.48192771 7.22891566 -0.48192771 10.5 1.5625 C12.55208345 4.8971356 12.49781887 7.159683 12 11 C7.7975546 13.80163026 4.99895065 13.14489712 0 13 C0 8.71 0 4.42 0 0 Z " fill="#585858" transform="translate(91,120)"/>
<path d="M0 0 C3.28166817 2.44500525 3.67524747 5.00210079 4.3125 8.9375 C4.49425781 9.97777344 4.67601563 11.01804687 4.86328125 12.08984375 C5.00642769 15.13681793 4.62626544 16.47228405 3 19 C2.67 17.68 2.34 16.36 2 15 C1.01 15 0.02 15 -1 15 C-1 14.34 -1 13.68 -1 13 C-1.99 12.67 -2.98 12.34 -4 12 C-4.73046875 10.15234375 -4.73046875 10.15234375 -5.1875 7.9375 C-5.34605469 7.20402344 -5.50460938 6.47054687 -5.66796875 5.71484375 C-5.77753906 5.14894531 -5.88710937 4.58304687 -6 4 C-6.66 4 -7.32 4 -8 4 C-7.625 2.0625 -7.625 2.0625 -7 0 C-4.26634878 -1.36682561 -2.89333621 -0.84683011 0 0 Z " fill="#194DD1" transform="translate(108,78)"/>
<path d="M0 0 C3.96 0 7.92 0 12 0 C12 3 12 3 10.6875 4.6875 C9 6 9 6 6 6 C6 6.66 6 7.32 6 8 C5.34 8 4.68 8 4 8 C4 8.99 4 9.98 4 11 C3.34 11 2.68 11 2 11 C2 11.66 2 12.32 2 13 C1.01 13 0.02 13 -1 13 C-0.49396008 10.83125748 -0.00016187 9.00032373 1 7 C0.01 7 -0.98 7 -2 7 C-1.938125 7.78375 -1.87625 8.5675 -1.8125 9.375 C-1.874375 10.24125 -1.93625 11.1075 -2 12 C-2.99 12.66 -3.98 13.32 -5 14 C-3.8545847 8.8896856 -2.54521255 4.62765919 0 0 Z " fill="#325FD1" transform="translate(83,65)"/>
<path d="M0 0 C1.79133978 -0.05391993 3.58313899 -0.09275571 5.375 -0.125 C6.37273438 -0.14820312 7.37046875 -0.17140625 8.3984375 -0.1953125 C11 0 11 0 13 2 C13.3125 4.4375 13.3125 4.4375 13 7 C11.5625 8.625 11.5625 8.625 10 10 C9.67 10.99 9.34 11.98 9 13 C5.78634109 11.89184175 5.0085776 11.01470446 3.25 8 C2 5 2 5 2 3 C1.34 3 0.68 3 0 3 C0 2.01 0 1.02 0 0 Z " fill="#234FC9" transform="translate(41,65)"/>
<path d="M0 0 C4.59037956 1.14759489 5.33669182 2.29039218 8 6 C8.33 4.02 8.66 2.04 9 0 C9.66 0 10.32 0 11 0 C11 3.96 11 7.92 11 12 C6 10 6 10 4.6875 7.875 C4.3471875 6.946875 4.3471875 6.946875 4 6 C3.67 7.98 3.34 9.96 3 12 C2.01 12 1.02 12 0 12 C0 8.04 0 4.08 0 0 Z " fill="#494948" transform="translate(121,121)"/>
<path d="M0 0 C0.99 0.33 1.98 0.66 3 1 C3 1.99 3 2.98 3 4 C3.66 4 4.32 4 5 4 C5 5.32 5 6.64 5 8 C5.99 8 6.98 8 8 8 C7.42415568 10.38564077 6.77772405 12.66682784 6 15 C4.68 15 3.36 15 2 15 C1.34 12.36 0.68 9.72 0 7 C-0.66 7 -1.32 7 -2 7 C-2 6.34 -2 5.68 -2 5 C-2.66 5 -3.32 5 -4 5 C-4 4.01 -4 3.02 -4 2 C-3.01 2 -2.02 2 -1 2 C-0.67 1.34 -0.34 0.68 0 0 Z " fill="#184CD2" transform="translate(34,76)"/>
<path d="M0 0 C3 1 3 1 4.16796875 2.77734375 C4.50441406 3.49019531 4.84085938 4.20304687 5.1875 4.9375 C5.53167969 5.64777344 5.87585938 6.35804687 6.23046875 7.08984375 C7 9 7 9 7 11 C3.04 11 -0.92 11 -5 11 C-4.02745 6.13724999 -2.82739031 3.92186398 0 0 Z " fill="#D2E0FA" transform="translate(101,86)"/>
<path d="M0 0 C0.99 0 1.98 0 3 0 C3 1.98 3 3.96 3 6 C4.98 6 6.96 6 9 6 C9 4.35 9 2.7 9 1 C9.66 1 10.32 1 11 1 C11 4.96 11 8.92 11 13 C10.34 13 9.68 13 9 13 C9 11.35 9 9.7 9 8 C7.02 8 5.04 8 3 8 C3 9.65 3 11.3 3 13 C2.01 13 1.02 13 0 13 C0 8.71 0 4.42 0 0 Z " fill="#4E4E4E" transform="translate(35,120)"/>
<path d="M0 0 C1.134375 0.020625 2.26875 0.04125 3.4375 0.0625 C3.4375 1.0525 3.4375 2.0425 3.4375 3.0625 C1.7875 3.0625 0.1375 3.0625 -1.5625 3.0625 C-1.5625 3.7225 -1.5625 4.3825 -1.5625 5.0625 C0.4175 5.7225 2.3975 6.3825 4.4375 7.0625 C4.5625 9.4375 4.5625 9.4375 4.4375 12.0625 C2.4375 14.0625 2.4375 14.0625 -0.6875 14.1875 C-2.110625 14.125625 -2.110625 14.125625 -3.5625 14.0625 C-3.8925 13.0725 -4.2225 12.0825 -4.5625 11.0625 C-2.5825 11.0625 -0.6025 11.0625 1.4375 11.0625 C1.4375 10.0725 1.4375 9.0825 1.4375 8.0625 C-1.5325 7.5675 -1.5325 7.5675 -4.5625 7.0625 C-4.60504356 5.06295254 -4.60330783 3.06208364 -4.5625 1.0625 C-3.5625 0.0625 -3.5625 0.0625 0 0 Z " fill="#494949" transform="translate(164.5625,119.9375)"/>
<path d="M0 0 C0 0.99 0 1.98 0 3 C9.04235055 2.34908323 9.04235055 2.34908323 18 1 C17.67 1.99 17.34 2.98 17 4 C10.90841759 6.36204216 4.32637944 7.10879315 -2 5 C-2 4.34 -2 3.68 -2 3 C-3.65 2.67 -5.3 2.34 -7 2 C-7 1.67 -7 1.34 -7 1 C-2.25 0 -2.25 0 0 0 Z " fill="#5A7CD3" transform="translate(142,110)"/>
<path d="M0 0 C0.99 1.485 0.99 1.485 2 3 C2.53625 3.680625 3.0725 4.36125 3.625 5.0625 C5 7 5 7 5 9 C8.60993172 10.13480527 11.9842327 10.10015767 15.75 10.0625 C16.92046875 10.05347656 18.0909375 10.04445313 19.296875 10.03515625 C20.18890625 10.02355469 21.0809375 10.01195313 22 10 C21 12 21 12 19.25 12.6171875 C16.79317081 13.03518969 14.49185617 13.13259712 12 13.125 C10.7315625 13.12886719 10.7315625 13.12886719 9.4375 13.1328125 C7 13 7 13 4.8125 12.4296875 C2.91505322 11.77519217 2.91505322 11.77519217 1 13 C0.67 8.71 0.34 4.42 0 0 Z " fill="#436BD2" transform="translate(133,93)"/>
<path d="M0 0 C3.27640794 4.09550993 5.92234084 8.59111482 8.0625 13.375 C8.96674867 15.35764383 8.96674867 15.35764383 12 16 C12 16.66 12 17.32 12 18 C11.05125 17.979375 10.1025 17.95875 9.125 17.9375 C6.09333717 17.77448174 6.09333717 17.77448174 4 19 C1.78461538 12.6 1.78461538 12.6 2.875 9.5625 C3.24625 9.046875 3.6175 8.53125 4 8 C3.01 8 2.02 8 1 8 C0.67 5.36 0.34 2.72 0 0 Z " fill="#305BD3" transform="translate(38,76)"/>
<path d="M0 0 C0 0.66 0 1.32 0 2 C-0.969375 1.979375 -1.93875 1.95875 -2.9375 1.9375 C-5.87465895 1.64381501 -5.87465895 1.64381501 -7 3 C-7.36760731 5.32817964 -7.70241581 7.6618385 -8 10 C-6.02 10 -4.04 10 -2 10 C-1.67 9.01 -1.34 8.02 -1 7 C-1.99 6.67 -2.98 6.34 -4 6 C-2.35 6 -0.7 6 1 6 C1.042721 7.66611905 1.04063832 9.33382885 1 11 C0 12 0 12 -3.3125 12.25 C-7 12 -7 12 -9.4375 10.9375 C-11.76643994 8.04961448 -11.27050795 5.58423038 -11 2 C-7.36576791 -0.32590854 -4.22911669 -0.16265833 0 0 Z " fill="#303030" transform="translate(151,121)"/>
<path d="M0 0 C0.66 0 1.32 0 2 0 C2.04898438 1.01320313 2.09796875 2.02640625 2.1484375 3.0703125 C2.22352564 4.42189911 2.29907081 5.77346038 2.375 7.125 C2.4059375 7.79015625 2.436875 8.4553125 2.46875 9.140625 C2.71884961 13.39231832 3.34200489 17.06818302 5 21 C7.00136244 22.42055068 7.00136244 22.42055068 9 23 C9 23.99 9 24.98 9 26 C9.66 26 10.32 26 11 26 C11.33 26.99 11.66 27.98 12 29 C7.48983009 27.84024202 5.67977961 25.69180427 3.11328125 22.046875 C0.32029035 16.91169173 -0.23441554 12.42402379 -0.125 6.625 C-0.10695313 5.37976563 -0.08890625 4.13453125 -0.0703125 2.8515625 C-0.04710938 1.91054687 -0.02390625 0.96953125 0 0 Z " fill="#3059C5" transform="translate(123,82)"/>
<path d="M0 0 C0.99 0 1.98 0 3 0 C3 3.3 3 6.6 3 10 C4.98 10 6.96 10 9 10 C9 10.99 9 11.98 9 13 C6.03 13 3.06 13 0 13 C0 8.71 0 4.42 0 0 Z " fill="#606061" transform="translate(75,121)"/>
<path d="M0 0 C0.33 0 0.66 0 1 0 C1.02578125 0.76183594 1.0515625 1.52367188 1.078125 2.30859375 C1.5427393 10.76668593 3.30728982 16.96093474 8 24 C7.34 24 6.68 24 6 24 C5.67 25.32 5.34 26.64 5 28 C2.66666667 23.33333333 0.33333333 18.66666667 -2 14 C-1.34 13.67 -0.68 13.34 0 13 C0 8.71 0 4.42 0 0 Z " fill="#BBCDF9" transform="translate(122,84)"/>
<path d="M0 0 C8.58 0 17.16 0 26 0 C26.33 1.65 26.66 3.3 27 5 C26.58935303 4.51176758 26.17870605 4.02353516 25.75561523 3.52050781 C23.61650734 1.66786368 22.69689735 1.6353441 19.91015625 1.671875 C19.12576172 1.67703125 18.34136719 1.6821875 17.53320312 1.6875 C16.71787109 1.708125 15.90253906 1.72875 15.0625 1.75 C14.25103516 1.75515625 13.43957031 1.7603125 12.60351562 1.765625 C7.2211459 1.81178098 7.2211459 1.81178098 2 3 C0.71563266 4.9837767 0.71563266 4.9837767 0 7 C-0.99 7 -1.98 7 -3 7 C-2.67 5.68 -2.34 4.36 -2 3 C-1.34 3 -0.68 3 0 3 C0 2.01 0 1.02 0 0 Z " fill="#D1E6FC" transform="translate(89,107)"/>
<path d="M0 0 C0 3.25861252 -0.78950212 5.00935818 -2 8 C-2.165 8.86625 -2.33 9.7325 -2.5 10.625 C-3 13 -3 13 -5 16 C-2.69 16.33 -0.38 16.66 2 17 C2 17.33 2 17.66 2 18 C-1.63 18 -5.26 18 -9 18 C-8.34 15.69 -7.68 13.38 -7 11 C-6.34 11 -5.68 11 -5 11 C-4.80664062 10.37351562 -4.61328125 9.74703125 -4.4140625 9.1015625 C-4.02347656 7.87566406 -4.02347656 7.87566406 -3.625 6.625 C-3.36976562 5.81289062 -3.11453125 5.00078125 -2.8515625 4.1640625 C-2 2 -2 2 0 0 Z " fill="#5274D3" transform="translate(84,96)"/>
<path d="M0 0 C-0.63261683 3.69026484 -1.57090359 6.42725897 -3 10 C0.63 10 4.26 10 8 10 C8 10.33 8 10.66 8 11 C3.71 11 -0.58 11 -5 11 C-5.33 10.01 -5.66 9.02 -6 8 C-6.66 7.34 -7.32 6.68 -8 6 C-7.34 6 -6.68 6 -6 6 C-5.896875 5.38125 -5.79375 4.7625 -5.6875 4.125 C-4.72223986 1.14146864 -3.16449578 0 0 0 Z " fill="#DFEAFC" transform="translate(78,104)"/>
<path d="M0 0 C1.99954746 -0.04254356 4.00041636 -0.04080783 6 0 C7 1 7 1 7.125 3.5 C7 6 7 6 6 7 C3.5625 7.1875 3.5625 7.1875 1 7 C0.34 6.34 -0.32 5.68 -1 5 C-0.625 2.375 -0.625 2.375 0 0 Z " fill="#E9E8E9" transform="translate(57,124)"/>
<path d="M0 0 C0.99 0.33 1.98 0.66 3 1 C2.566875 1.69609375 2.566875 1.69609375 2.125 2.40625 C-1.98553921 10.0564202 -1.37226294 17.57238065 -1 26 C-1.33 25.34 -1.66 24.68 -2 24 C-2.99 23.67 -3.98 23.34 -5 23 C-5.6875 20.9375 -5.6875 20.9375 -6 19 C-5.34 19 -4.68 19 -4 19 C-3.94392578 17.69675781 -3.94392578 17.69675781 -3.88671875 16.3671875 C-3.23374341 4.92091388 -3.23374341 4.92091388 0 0 Z " fill="#E4F1FE" transform="translate(124,74)"/>
<path d="M0 0 C1.125 3.75 1.125 3.75 0 6 C1.32 6 2.64 6 4 6 C4 6.66 4 7.32 4 8 C3.01 8.33 2.02 8.66 1 9 C-0.66710346 10.49985609 -0.66710346 10.49985609 -2 12 C-2 11.34 -2 10.68 -2 10 C-2.66 10 -3.32 10 -4 10 C-4.33 11.32 -4.66 12.64 -5 14 C-5.66 14 -6.32 14 -7 14 C-5.53967505 8.68972746 -3.01679014 4.53669968 0 0 Z " fill="#3E69D2" transform="translate(62,68)"/>
<path d="M0 0 C1.65 0.33 3.3 0.66 5 1 C5.66 3.31 6.32 5.62 7 8 C7 5.69 7 3.38 7 1 C7.66 1.33 8.32 1.66 9 2 C9 4.31 9 6.62 9 9 C8.01 9.33 7.02 9.66 6 10 C6 10.66 6 11.32 6 12 C3.36 12 0.72 12 -2 12 C0 9 0 9 2.125 8.3125 C2.74375 8.209375 3.3625 8.10625 4 8 C4 6.35 4 4.7 4 3 C2.35 2.67 0.7 2.34 -1 2 C-0.67 1.34 -0.34 0.68 0 0 Z " fill="#959495" transform="translate(59,122)"/>
<path d="M0 0 C1.66611905 -0.042721 3.33382885 -0.04063832 5 0 C6 1 6 1 6.125 4 C6 7 6 7 5 8 C3.33382885 8.04063832 1.66611905 8.042721 0 8 C0 5.36 0 2.72 0 0 Z " fill="#E7E7E7" transform="translate(94,123)"/>
<path d="M0 0 C2.31 0 4.62 0 7 0 C5.68 0.33 4.36 0.66 3 1 C3 4.3 3 7.6 3 11 C4.32 11.33 5.64 11.66 7 12 C4.69 12 2.38 12 0 12 C0 8.04 0 4.08 0 0 Z " fill="#3F3F3F" transform="translate(91,121)"/>
<path d="M0 0 C4.42679007 1.47559669 4.91432696 3.90057368 7 8 C7 8.66 7 9.32 7 10 C6.34 10 5.68 10 5 10 C4.5978125 9.0409375 4.5978125 9.0409375 4.1875 8.0625 C3.11332248 5.66868314 3.11332248 5.66868314 0 5 C0 5.66 0 6.32 0 7 C-0.99 7 -1.98 7 -3 7 C-3 7.99 -3 8.98 -3 10 C-3.66 10 -4.32 10 -5 10 C-3.66511872 6.40608886 -2.03977277 3.24509304 0 0 Z " fill="#B5C9F5" transform="translate(57,97)"/>
<path d="M0 0 C0.99 0 1.98 0 3 0 C3 4.29 3 8.58 3 13 C2.01 13 1.02 13 0 13 C0 8.71 0 4.42 0 0 Z " fill="#555555" transform="translate(110,120)"/>
<path d="M0 0 C0.66 0 1.32 0 2 0 C2 0.99 2 1.98 2 3 C2.99 3.33 3.98 3.66 5 4 C5.33 4.99 5.66 5.98 6 7 C7.29355827 8.37195574 8.62298702 9.71182656 10 11 C9.67 11.99 9.34 12.98 9 14 C8.01 13.67 7.02 13.34 6 13 C5.33333333 10.66666667 4.66666667 8.33333333 4 6 C3.01 5.67 2.02 5.34 1 5 C0.67 3.35 0.34 1.7 0 0 Z " fill="#4B6CCD" transform="translate(40,99)"/>
<path d="M0 0 C0.33 0 0.66 0 1 0 C1 1.98 1 3.96 1 6 C1.66 6 2.32 6 3 6 C3 4.68 3 3.36 3 2 C5.31 2 7.62 2 10 2 C10 3.98 10 5.96 10 8 C9.67 8 9.34 8 9 8 C9 6.35 9 4.7 9 3 C8.01 3.495 8.01 3.495 7 4 C6.34786708 6.02463255 6.34786708 6.02463255 6 8 C3.03 7.505 3.03 7.505 0 7 C0 4.69 0 2.38 0 0 Z " fill="#AAABAA" transform="translate(143,124)"/>
<path d="M0 0 C0.66 0.99 1.32 1.98 2 3 C1.67 3.66 1.34 4.32 1 5 C-0.98 5 -2.96 5 -5 5 C-5 6.32 -5 7.64 -5 9 C-5.66 9 -6.32 9 -7 9 C-7 6.69 -7 4.38 -7 2 C-2.25 0.875 -2.25 0.875 0 2 C0 1.34 0 0.68 0 0 Z " fill="#DBDBDA" transform="translate(151,121)"/>
<path d="M0 0 C2.64 0.33 5.28 0.66 8 1 C7.67 2.32 7.34 3.64 7 5 C5.35 5.33 3.7 5.66 2 6 C0 3 0 3 0 0 Z " fill="#1C50CE" transform="translate(43,67)"/>
<path d="M0 0 C0.99 0 1.98 0 3 0 C1.69102949 3.92691153 0.63434155 4.99740363 -3 7 C-6.45269531 6.74131182 -9.67823638 5.95460391 -13 5 C-13 4.67 -13 4.34 -13 4 C-11.84371094 3.81824219 -11.84371094 3.81824219 -10.6640625 3.6328125 C-9.66117188 3.46523437 -8.65828125 3.29765625 -7.625 3.125 C-6.12839844 2.88136719 -6.12839844 2.88136719 -4.6015625 2.6328125 C-1.8574885 2.2041198 -1.8574885 2.2041198 0 0 Z " fill="#174ACB" transform="translate(156,102)"/>
<path d="M0 0 C1.65322266 0.01740234 1.65322266 0.01740234 3.33984375 0.03515625 C4.99693359 0.04869141 4.99693359 0.04869141 6.6875 0.0625 C7.54214844 0.07410156 8.39679688 0.08570312 9.27734375 0.09765625 C9.27734375 0.42765625 9.27734375 0.75765625 9.27734375 1.09765625 C8.37242187 1.18853516 8.37242187 1.18853516 7.44921875 1.28125 C6.25039062 1.40693359 6.25039062 1.40693359 5.02734375 1.53515625 C4.2384375 1.61636719 3.44953125 1.69757813 2.63671875 1.78125 C0.42883164 2.07734082 -1.60863221 2.39298157 -3.72265625 3.09765625 C-5.00702359 5.08143295 -5.00702359 5.08143295 -5.72265625 7.09765625 C-6.71265625 6.76765625 -7.70265625 6.43765625 -8.72265625 6.09765625 C-2.72265625 0.09765625 -2.72265625 0.09765625 0 0 Z " fill="#B6CAF4" transform="translate(143.72265625,74.90234375)"/>
<path d="M0 0 C1.79133978 -0.05391993 3.58313899 -0.09275571 5.375 -0.125 C6.37273438 -0.14820312 7.37046875 -0.17140625 8.3984375 -0.1953125 C11 0 11 0 13 2 C13.125 4.625 13.125 4.625 13 7 C12.34 5.68 11.68 4.36 11 3 C7.37 3 3.74 3 0 3 C0 2.01 0 1.02 0 0 Z " fill="#6784D4" transform="translate(41,65)"/>
<path d="M0 0 C0.33 0 0.66 0 1 0 C1.125 2.375 1.125 2.375 1 5 C-1 7 -1 7 -4.125 7.125 C-5.548125 7.063125 -5.548125 7.063125 -7 7 C-7.33 6.01 -7.66 5.02 -8 4 C-6.02 4 -4.04 4 -2 4 C-1.34 2.68 -0.68 1.36 0 0 Z " fill="#5C5C5C" transform="translate(168,127)"/>
<path d="M0 0 C4.29 0 8.58 0 13 0 C13 0.99 13 1.98 13 3 C8.71 3 4.42 3 0 3 C0 2.01 0 1.02 0 0 Z " fill="#B1C1F0" transform="translate(21,64)"/>
<path d="M0 0 C0.33 0 0.66 0 1 0 C1.226875 1.11375 1.45375 2.2275 1.6875 3.375 C2.60623658 7.16038373 2.60623658 7.16038373 5.625 8.4375 C6.40875 8.623125 7.1925 8.80875 8 9 C8 9.33 8 9.66 8 10 C4.625 10.125 4.625 10.125 1 10 C-1 8 -1 8 -1.1875 5 C-1 2 -1 2 0 0 Z " fill="#333433" transform="translate(55,123)"/>
<path d="M0 0 C0 0.66 0 1.32 0 2 C-1.98 2 -3.96 2 -6 2 C-6.268125 2.969375 -6.53625 3.93875 -6.8125 4.9375 C-7.204375 5.948125 -7.59625 6.95875 -8 8 C-8.99 8.33 -9.98 8.66 -11 9 C-11 6.69 -11 4.38 -11 2 C-7.36576791 -0.32590854 -4.22911669 -0.16265833 0 0 Z " fill="#4B4C4C" transform="translate(151,121)"/>
<path d="M0 0 C1.125 3.75 1.125 3.75 0 6 C-1.98 5.34 -3.96 4.68 -6 4 C-5.67 3.01 -5.34 2.02 -5 1 C-3.35 1.33 -1.7 1.66 0 2 C0 1.34 0 0.68 0 0 Z " fill="#C2C2C2" transform="translate(168,121)"/>
<path d="M0 0 C2 0 2 0 3.5 1.4375 C3.995 1.953125 4.49 2.46875 5 3 C5.66 3.33 6.32 3.66 7 4 C7 4.99 7 5.98 7 7 C7.66 7 8.32 7 9 7 C9.33 7.99 9.66 8.98 10 10 C5.28531599 8.78765268 3.52327801 6.41445146 0.91796875 2.55859375 C0 1 0 1 0 0 Z " fill="#476ECF" transform="translate(125,101)"/>
<path d="M0 0 C4.84455959 2.37823834 4.84455959 2.37823834 7 4 C7.9375 6.75 7.9375 6.75 8 9 C7.01 8.67 6.02 8.34 5 8 C4.3125 5.9375 4.3125 5.9375 4 4 C2.68 4 1.36 4 0 4 C0 2.68 0 1.36 0 0 Z " fill="#4167CD" transform="translate(160,67)"/>
<path d="M0 0 C0.66 0 1.32 0 2 0 C2 3.96 2 7.92 2 12 C1.34 12 0.68 12 0 12 C-0.92844389 7.66726186 -0.92844389 4.33273814 0 0 Z " fill="#1C1B1B" transform="translate(44,121)"/>
<path d="M0 0 C0.66 0 1.32 0 2 0 C2 0.66 2 1.32 2 2 C2.66 2 3.32 2 4 2 C4.19335938 2.55429688 4.38671875 3.10859375 4.5859375 3.6796875 C4.84632812 4.40414062 5.10671875 5.12859375 5.375 5.875 C5.63023438 6.59429687 5.88546875 7.31359375 6.1484375 8.0546875 C6.93877783 10.18157994 6.93877783 10.18157994 9 12 C8.01 12 7.02 12 6 12 C4.02 8.04 2.04 4.08 0 0 Z " fill="#395DC6" transform="translate(30,81)"/>
<path d="M0 0 C2.64465038 3.1254959 3.84414715 6.08788267 5 10 C3.68 9.67 2.36 9.34 1 9 C0.67 6.03 0.34 3.06 0 0 Z " fill="#C3D5F7" transform="translate(27,76)"/>
<path d="M0 0 C1.65 0.33 3.3 0.66 5 1 C5 1.99 5 2.98 5 4 C2.69 4.33 0.38 4.66 -2 5 C-1.34 3.35 -0.68 1.7 0 0 Z " fill="#C5C5C5" transform="translate(161,127)"/>
<path d="M0 0 C1.32 0.33 2.64 0.66 4 1 C4.33 2.32 4.66 3.64 5 5 C4.34 5 3.68 5 3 5 C3 4.34 3 3.68 3 3 C2.34 3 1.68 3 1 3 C1 5.31 1 7.62 1 10 C0.67 10 0.34 10 0 10 C0 6.7 0 3.4 0 0 Z " fill="#242524" transform="translate(122,122)"/>
<path d="M0 0 C2 1.25 2 1.25 4 3 C4 4.32 4 5.64 4 7 C3.01 7 2.02 7 1 7 C0.67 4.69 0.34 2.38 0 0 Z " fill="#2451CA" transform="translate(107,78)"/>
<path d="M0 0 C2 2.66666667 4 5.33333333 6 8 C5.67 8.66 5.34 9.32 5 10 C3.0625 9.5 3.0625 9.5 1 8 C0.31209578 5.30341548 0.18053536 2.7982981 0 0 Z " fill="#5173CF" transform="translate(38,76)"/>
<path d="M0 0 C0.33 0.66 0.66 1.32 1 2 C-4.14285714 7.57142857 -4.14285714 7.57142857 -8 8 C-5.33333333 5.33333333 -2.66666667 2.66666667 0 0 Z " fill="#BED0F7" transform="translate(169,104)"/>
<path d="M0 0 C0.66 0.99 1.32 1.98 2 3 C1.67 3.99 1.34 4.98 1 6 C0.34 6 -0.32 6 -1 6 C-1.33 6.66 -1.66 7.32 -2 8 C-2.125 5.125 -2.125 5.125 -2 2 C-1.34 1.34 -0.68 0.68 0 0 Z " fill="#3158CD" transform="translate(88,104)"/>
<path d="M0 0 C1.60031344 3.20062687 0.03173691 5.72271806 -1 9 C-1.99 9 -2.98 9 -4 9 C-3.35455571 5.51460083 -1.89865603 2.97180943 0 0 Z " fill="#5D7ED7" transform="translate(54,82)"/>
<path d="M0 0 C0.33 0 0.66 0 1 0 C1.3125 2.3125 1.3125 2.3125 1 5 C-1.5 6.8125 -1.5 6.8125 -4 8 C-2.25 2.25 -2.25 2.25 0 0 Z " fill="#2350C6" transform="translate(87,93)"/>
<path d="M0 0 C2.79872437 2.52788007 4.45773019 4.20411134 5 8 C4.34 8 3.68 8 3 8 C0.25624329 5.04518508 0 4.22528092 0 0 Z " fill="#C1D3F9" transform="translate(35,92)"/>
<path d="M0 0 C1.65 0 3.3 0 5 0 C5 1.65 5 3.3 5 5 C3.0625 4.1875 3.0625 4.1875 1 3 C0.67 2.01 0.34 1.02 0 0 Z " fill="#2F5AC9" transform="translate(45,73)"/>
<path d="M0 0 C0 0.99 0 1.98 0 3 C0.66 3.33 1.32 3.66 2 4 C-1.73487777 3.5020163 -3.81237635 3.12508244 -7 1 C-2.25 0 -2.25 0 0 0 Z " fill="#2551C1" transform="translate(142,110)"/>
<path d="M0 0 C0.99 0 1.98 0 3 0 C2 3 2 3 0 4 C-1.99960012 4.039992 -4.00047242 4.04346799 -6 4 C-5.38125 3.71125 -4.7625 3.4225 -4.125 3.125 C-1.86674235 2.06279958 -1.86674235 2.06279958 0 0 Z " fill="#2450C5" transform="translate(156,102)"/>
<path d="M0 0 C0.33 1.32 0.66 2.64 1 4 C0.34 4 -0.32 4 -1 4 C-1.33 4.99 -1.66 5.98 -2 7 C-2.66 7 -3.32 7 -4 7 C-2.92598892 4.08482708 -2.22189824 2.22189824 0 0 Z " fill="#4F72D0" transform="translate(129,72)"/>
</svg>
